<svg width="68" height="68" viewBox="0 0 68 68" fill="none" xmlns="http://www.w3.org/2000/svg">
<rect x="1" y="1.13965" width="66" height="66" rx="33" stroke="white" stroke-linecap="round"/>
<path d="M35.6044 45.5147C23.39 45.5147 16.4231 36.9749 16.1328 22.7646H22.2512C22.4521 33.1946 26.9628 37.6125 30.5355 38.5234V22.7646H36.2966V31.7599C39.8247 31.3728 43.5315 27.2737 44.7819 22.7646H50.543C50.0718 25.1031 49.1325 27.3173 47.7839 29.2687C46.4353 31.2201 44.7064 32.8667 42.7053 34.1055C44.939 35.2374 46.9119 36.8396 48.4939 38.8062C50.0759 40.7729 51.2309 43.0593 51.8828 45.5147H45.5412C44.956 43.382 43.7666 41.473 42.1221 40.0267C40.4776 38.5805 38.4511 37.6615 36.2966 37.3848V45.5147H35.6044Z" fill="white"/>
</svg>
