<svg width="68" height="68" viewBox="0 0 68 68" fill="none" xmlns="http://www.w3.org/2000/svg">
<rect x="1" y="1.13965" width="66" height="66" rx="33" stroke="white" stroke-linecap="round"/>
<path d="M46.8811 21.2412C43.6707 18.042 39.3902 16.2646 34.8719 16.2646C25.4787 16.2646 17.8689 23.848 17.8689 33.2087C17.8689 36.1709 18.7012 39.1331 20.128 41.6214L17.75 50.3896L26.7866 48.0199C29.2835 49.3232 32.0183 50.0342 34.8719 50.0342C44.2652 50.0342 51.875 42.4508 51.875 33.0902C51.7561 28.7061 50.0915 24.4404 46.8811 21.2412ZM43.0762 39.2516C42.7195 40.1995 41.0549 41.1475 40.2226 41.2659C39.5091 41.3844 38.5579 41.3844 37.6067 41.1475C37.0122 40.9105 36.1799 40.6735 35.2287 40.1995C30.9482 38.4222 28.2134 34.1566 27.9756 33.8011C27.7378 33.5641 26.1921 31.5498 26.1921 29.417C26.1921 27.2842 27.2622 26.3363 27.6189 25.8623C27.9756 25.3883 28.4512 25.3883 28.8079 25.3883C29.0457 25.3883 29.4024 25.3883 29.6402 25.3883C29.878 25.3883 30.2348 25.2699 30.5915 26.0993C30.9482 26.9287 31.7805 29.0615 31.8994 29.18C32.0183 29.417 32.0183 29.654 31.8994 29.891C31.7805 30.1279 31.6616 30.3649 31.4238 30.6019C31.186 30.8389 30.9482 31.1943 30.8293 31.3128C30.5915 31.5498 30.3537 31.7868 30.5915 32.1423C30.8293 32.6162 31.6616 33.9196 32.9695 35.1045C34.6341 36.5264 35.9421 37.0003 36.4177 37.2373C36.8933 37.4743 37.1311 37.3558 37.3689 37.1188C37.6067 36.8818 38.439 35.9339 38.6768 35.46C38.9146 34.986 39.2713 35.1045 39.628 35.223C39.9848 35.3415 42.125 36.4079 42.4817 36.6449C42.9573 36.8818 43.1951 37.0003 43.314 37.1188C43.4329 37.4743 43.4329 38.3037 43.0762 39.2516Z" fill="white"/>
</svg>
