<svg width="170" height="61" viewBox="0 0 170 61" fill="none" xmlns="http://www.w3.org/2000/svg">
<g id="Logotype" clip-path="url(#clip0_1129_7012)">
<g id="text">
<path fill-rule="evenodd" clip-rule="evenodd" d="M59.8245 28.6273C59.8245 28.7043 59.8245 28.8195 59.8245 28.8579C59.8245 28.9349 59.8245 28.9735 59.7859 29.0119C59.7859 29.0504 59.7472 29.0888 59.7472 29.1273C59.7087 29.1657 59.7088 29.2041 59.6702 29.2426C59.6316 29.281 59.5544 29.3581 59.4386 29.3966C59.3228 29.4735 59.1684 29.5119 59.0141 29.5889C58.8211 29.6658 58.6282 29.7042 58.4352 29.7427C58.2037 29.7811 57.9722 29.8195 57.702 29.8195C57.2004 29.8195 56.7373 29.7427 56.3514 29.5889C55.9269 29.435 55.6181 29.2041 55.3094 28.8964C55.0392 28.5888 54.8078 28.2041 54.6535 27.7426C54.4991 27.2811 54.4219 26.7427 54.4219 26.1273C54.4219 25.5119 54.4991 24.9349 54.6535 24.4734C54.8078 23.9734 55.0393 23.5889 55.348 23.2427C55.6567 22.8966 56.004 22.6656 56.4285 22.5118C56.8529 22.3579 57.3161 22.2427 57.8177 22.2427C58.0107 22.2427 58.2036 22.2427 58.3966 22.2812C58.5895 22.3196 58.7439 22.358 58.9368 22.3965C59.0912 22.4349 59.2456 22.5119 59.3613 22.5888C59.4771 22.6657 59.593 22.7426 59.6315 22.7811C59.6701 22.8196 59.7087 22.8579 59.7472 22.8964C59.7858 22.9349 59.7859 22.9734 59.7859 23.0119C59.7859 23.0504 59.8245 23.1273 59.8245 23.2042C59.8245 23.2811 59.8245 23.3579 59.8245 23.4733C59.8245 23.5887 59.8245 23.6658 59.8245 23.7811C59.8245 23.8581 59.7859 23.935 59.7859 23.9734C59.7473 24.0119 59.7472 24.0503 59.7086 24.0888C59.67 24.1272 59.6315 24.1273 59.6315 24.1273C59.593 24.1273 59.5157 24.0889 59.4 24.0119C59.3228 23.935 59.2071 23.8581 59.0527 23.7811C58.8983 23.7042 58.7439 23.6273 58.5509 23.5503C58.358 23.4734 58.1265 23.435 57.8564 23.435C57.5476 23.435 57.3161 23.5119 57.0846 23.6273C56.853 23.7427 56.6601 23.9349 56.5057 24.1273C56.3513 24.358 56.2356 24.6273 56.1584 24.935C56.0813 25.2427 56.0425 25.5888 56.0425 26.0118C56.0425 26.4349 56.0813 26.8195 56.1584 27.1272C56.2356 27.4349 56.39 27.7041 56.5443 27.8964C56.6987 28.0887 56.8916 28.2426 57.1232 28.358C57.3547 28.4734 57.6249 28.5118 57.895 28.5118C58.1651 28.5118 58.3966 28.4735 58.5895 28.435C58.7825 28.3581 58.937 28.3196 59.0913 28.2427C59.2457 28.1658 59.3614 28.0889 59.4386 28.0504C59.5158 27.9735 59.593 27.9734 59.6315 27.9734C59.6701 27.9734 59.7086 27.9734 59.7086 28.0119C59.7472 28.0119 59.7473 28.0503 59.7859 28.0887C59.7859 28.1272 59.8245 28.2041 59.8245 28.281C59.8245 28.3964 59.8245 28.5119 59.8245 28.6273ZM65.806 23.0119C65.806 23.1273 65.806 23.2041 65.806 23.281C65.806 23.3579 65.7673 23.4349 65.7673 23.4733C65.7288 23.5118 65.7287 23.5504 65.6901 23.5888C65.6515 23.6273 65.613 23.6273 65.613 23.6273H63.7606V29.5504C63.7606 29.5888 63.7607 29.6272 63.7221 29.6657C63.6836 29.7041 63.6449 29.7042 63.6063 29.7427C63.5677 29.7427 63.4905 29.7812 63.3747 29.7812C63.2589 29.7812 63.1432 29.7812 63.0274 29.7812C62.873 29.7812 62.7573 29.7812 62.6801 29.7812C62.5644 29.7812 62.4871 29.7427 62.4486 29.7427C62.41 29.7042 62.3329 29.7041 62.3329 29.6657C62.2943 29.6272 62.2942 29.5888 62.2942 29.5504V23.6273H60.442C60.4034 23.6273 60.3647 23.6273 60.3261 23.5888C60.2875 23.5504 60.2876 23.5503 60.249 23.4733C60.249 23.4349 60.2104 23.3579 60.2104 23.281C60.2104 23.2041 60.2104 23.1273 60.2104 23.0119C60.2104 22.8965 60.2104 22.8195 60.2104 22.7041C60.2104 22.6272 60.249 22.5503 60.249 22.5118C60.2876 22.4733 60.2875 22.4349 60.3261 22.3965C60.3647 22.358 60.4034 22.358 60.442 22.358H65.613C65.6516 22.358 65.6901 22.358 65.6901 22.3965C65.7287 22.4349 65.7288 22.4349 65.7673 22.5118C65.8059 22.5503 65.806 22.6272 65.806 22.7041C65.806 22.8195 65.806 22.8965 65.806 23.0119ZM73.0222 26.0118C73.0222 26.6272 72.9452 27.1658 72.7908 27.6273C72.6365 28.1273 72.4048 28.5118 72.0961 28.8579C71.7874 29.2041 71.4401 29.4349 70.977 29.6272C70.5525 29.8195 70.0123 29.8965 69.4334 29.8965C68.8546 29.8965 68.3529 29.8195 67.9284 29.6657C67.5039 29.5118 67.1565 29.2811 66.8478 28.9734C66.5777 28.6658 66.3462 28.2811 66.1919 27.8196C66.0375 27.3581 65.9603 26.7812 65.9603 26.1273C65.9603 25.5504 66.0375 25.0119 66.1919 24.5119C66.3462 24.0503 66.5777 23.6272 66.8864 23.3195C67.1951 22.9734 67.5424 22.7426 68.0055 22.5503C68.43 22.358 68.9703 22.2812 69.5491 22.2812C70.0894 22.2812 70.5912 22.3579 71.0156 22.5118C71.4401 22.6656 71.7874 22.8965 72.0961 23.2042C72.3662 23.5119 72.5978 23.8965 72.7522 24.3581C72.9452 24.8196 73.0222 25.358 73.0222 26.0118ZM71.4402 26.0888C71.4402 25.7042 71.4015 25.358 71.3629 25.0503C71.2857 24.7426 71.2086 24.4733 71.0543 24.2426C70.8999 24.0118 70.707 23.858 70.4754 23.7041C70.2439 23.5888 69.935 23.5118 69.5491 23.5118C69.1632 23.5118 68.8931 23.5888 68.623 23.7041C68.3914 23.858 68.1599 24.0118 68.0441 24.2426C67.8898 24.4733 67.7741 24.7426 67.7355 25.0503C67.6583 25.358 67.6582 25.6657 67.6582 26.0118C67.6582 26.3964 67.6969 26.7812 67.7355 27.0889C67.8127 27.3966 67.8898 27.6656 68.0441 27.8964C68.1985 28.1272 68.3914 28.2812 68.623 28.435C68.8545 28.5504 69.1632 28.6273 69.5491 28.6273C69.8964 28.6273 70.2053 28.5504 70.4754 28.435C70.707 28.2812 70.9384 28.1272 71.0927 27.8964C71.2471 27.6656 71.363 27.3966 71.4016 27.0889C71.4016 26.7427 71.4402 26.435 71.4402 26.0888ZM82.8627 29.5504C82.8627 29.5888 82.8629 29.6272 82.8243 29.6657C82.7857 29.7041 82.747 29.7042 82.7084 29.7427C82.6698 29.7427 82.5926 29.7812 82.4768 29.7812C82.3996 29.7812 82.2839 29.7812 82.1295 29.7812C81.9752 29.7812 81.8595 29.7812 81.7823 29.7812C81.7051 29.7812 81.6279 29.7427 81.5507 29.7427C81.5121 29.7042 81.4736 29.7041 81.435 29.6657C81.3964 29.6272 81.3964 29.5888 81.3964 29.5504V23.5888L79.2739 29.5504C79.2739 29.5888 79.2352 29.6272 79.1967 29.6657C79.1581 29.7041 79.1195 29.7427 79.0423 29.7427C78.9652 29.7427 78.9265 29.7812 78.8108 29.7812C78.7336 29.7812 78.6178 29.7812 78.4635 29.7812C78.3477 29.7812 78.232 29.7812 78.1162 29.7812C78.039 29.7812 77.9618 29.7427 77.8846 29.7427C77.8074 29.7042 77.7689 29.7041 77.7303 29.6657C77.6917 29.6272 77.6916 29.5888 77.653 29.5504L75.6078 23.5888V29.5504C75.6078 29.5888 75.6078 29.6272 75.5692 29.6657C75.5306 29.7041 75.4921 29.7042 75.4535 29.7427C75.3763 29.7427 75.3377 29.7812 75.2219 29.7812C75.1448 29.7812 75.029 29.7812 74.8747 29.7812C74.7203 29.7812 74.6046 29.7812 74.5274 29.7812C74.4502 29.7812 74.373 29.7427 74.2958 29.7427C74.2572 29.7042 74.2185 29.7041 74.1799 29.6657C74.1413 29.6272 74.1415 29.5888 74.1415 29.5504V23.0119C74.1415 22.8196 74.18 22.6657 74.2958 22.5503C74.4116 22.4349 74.5274 22.3965 74.7203 22.3965H75.6851C75.878 22.3965 75.9937 22.3965 76.1481 22.435C76.2638 22.4734 76.3797 22.5119 76.4569 22.5888C76.5341 22.6657 76.6111 22.7427 76.6883 22.8581C76.7655 22.9735 76.8042 23.0889 76.8428 23.2427L78.4249 27.6273H78.4635L80.123 23.281C80.1616 23.1272 80.2387 22.9733 80.2773 22.8964C80.3545 22.781 80.3931 22.7042 80.4702 22.6273C80.5474 22.5504 80.6245 22.5119 80.7403 22.4735C80.856 22.435 80.9718 22.435 81.1262 22.435H82.1295C82.2453 22.435 82.3226 22.435 82.3998 22.4735C82.4769 22.5119 82.5541 22.5503 82.5927 22.5888C82.6313 22.6273 82.6698 22.7042 82.7084 22.7811C82.747 22.858 82.747 22.935 82.747 23.0504V29.5504H82.8627ZM90.5037 29.2043C90.5423 29.3581 90.5808 29.4349 90.5808 29.5119C90.5808 29.5888 90.5809 29.6657 90.5423 29.7042C90.5037 29.7426 90.4265 29.7812 90.3107 29.7812C90.195 29.7812 90.0406 29.7812 89.8862 29.7812C89.6933 29.7812 89.5388 29.7812 89.423 29.7812C89.3073 29.7812 89.2303 29.7811 89.1917 29.7427C89.1531 29.7427 89.1144 29.7041 89.0758 29.6657C89.0372 29.6272 89.0371 29.5888 89.0371 29.5504L88.5356 28.0887H85.757L85.294 29.5119C85.294 29.5503 85.2554 29.6272 85.2168 29.6272C85.1782 29.6656 85.1397 29.7042 85.1011 29.7042C85.0625 29.7426 84.9853 29.7427 84.8695 29.7427C84.7537 29.7427 84.6379 29.7427 84.4836 29.7427C84.2906 29.7427 84.1748 29.7427 84.0591 29.7427C83.9433 29.7427 83.9047 29.7041 83.8661 29.6657C83.8275 29.6272 83.8275 29.5503 83.8275 29.4734C83.8275 29.3964 83.8661 29.2811 83.9047 29.1658L86.1815 22.6658C86.2201 22.5889 86.2202 22.5503 86.2588 22.5118C86.2974 22.4733 86.3359 22.435 86.4131 22.435C86.4903 22.3965 86.5675 22.3965 86.6833 22.3965C86.7991 22.3965 86.9533 22.3965 87.1463 22.3965C87.3778 22.3965 87.5321 22.3965 87.6865 22.3965C87.8023 22.3965 87.9181 22.3965 87.9953 22.435C88.0725 22.4734 88.1111 22.4733 88.1497 22.5118C88.1882 22.5503 88.2269 22.6273 88.2269 22.6658L90.5037 29.2043ZM87.1076 23.8196L86.0658 26.9349H88.1497L87.1076 23.8196ZM95.6361 23.0119C95.6361 23.1273 95.6361 23.2041 95.6361 23.281C95.6361 23.3579 95.5975 23.4349 95.5975 23.4733C95.5589 23.5118 95.559 23.5504 95.5204 23.5888C95.4818 23.6273 95.4432 23.6273 95.4432 23.6273H93.5909V29.5504C93.5909 29.5888 93.5909 29.6272 93.5523 29.6657C93.5137 29.7041 93.4752 29.7042 93.4366 29.7427C93.398 29.7427 93.3208 29.7812 93.205 29.7812C93.0892 29.7812 92.9735 29.7812 92.8577 29.7812C92.742 29.7812 92.5874 29.7812 92.5103 29.7812C92.3945 29.7812 92.3175 29.7427 92.2789 29.7427C92.2403 29.7042 92.163 29.7041 92.163 29.6657C92.1244 29.6272 92.1244 29.5888 92.1244 29.5504V23.6273H90.2721C90.2335 23.6273 90.195 23.6273 90.1564 23.5888C90.1178 23.5504 90.1177 23.5503 90.0792 23.4733C90.0792 23.4349 90.0405 23.3579 90.0405 23.281C90.0405 23.2041 90.0405 23.1273 90.0405 23.0119C90.0405 22.8965 90.0405 22.8195 90.0405 22.7041C90.0405 22.6272 90.0792 22.5503 90.0792 22.5118C90.0792 22.4733 90.1178 22.4349 90.1564 22.3965C90.195 22.358 90.2335 22.358 90.2721 22.358H95.4432C95.4817 22.358 95.5204 22.358 95.5204 22.3965C95.559 22.4349 95.5589 22.4349 95.5975 22.5118C95.5975 22.5503 95.6361 22.6272 95.6361 22.7041C95.6361 22.8195 95.6361 22.8965 95.6361 23.0119ZM102.853 26.0118C102.853 26.6272 102.775 27.1658 102.621 27.6273C102.467 28.1273 102.235 28.5118 101.926 28.8579C101.618 29.2041 101.27 29.4349 100.807 29.6272C100.383 29.8195 99.8424 29.8965 99.2635 29.8965C98.6847 29.8965 98.1831 29.8195 97.7586 29.6657C97.3341 29.5118 96.9868 29.2811 96.6781 28.9734C96.408 28.6658 96.1764 28.2811 96.022 27.8196C95.8676 27.3581 95.8291 26.7812 95.8291 26.1273C95.8291 25.5504 95.9063 25.0119 96.0606 24.5119C96.215 24.0503 96.4465 23.6272 96.7552 23.3195C97.0639 22.9734 97.4114 22.7426 97.8745 22.5503C98.2989 22.358 98.8392 22.2812 99.4181 22.2812C99.9583 22.2812 100.46 22.3579 100.884 22.5118C101.309 22.6656 101.656 22.8965 101.965 23.2042C102.235 23.5119 102.467 23.8965 102.621 24.3581C102.775 24.8196 102.853 25.358 102.853 26.0118ZM101.27 26.0888C101.27 25.7042 101.232 25.358 101.193 25.0503C101.116 24.7426 101.039 24.4733 100.884 24.2426C100.73 24.0118 100.537 23.858 100.306 23.7041C100.074 23.5888 99.7653 23.5118 99.3794 23.5118C99.0321 23.5118 98.7234 23.5888 98.4533 23.7041C98.2218 23.858 97.9902 24.0118 97.8358 24.2426C97.6815 24.4733 97.5656 24.7426 97.527 25.0503C97.4498 25.358 97.4499 25.6657 97.4499 26.0118C97.4499 26.3964 97.4884 26.7812 97.527 27.0889C97.6042 27.3966 97.6815 27.6656 97.8358 27.8964C97.9902 28.1272 98.1831 28.2812 98.4147 28.435C98.6462 28.5504 98.9549 28.6273 99.3408 28.6273C99.6881 28.6273 99.9968 28.5504 100.267 28.435C100.498 28.2812 100.73 28.1272 100.884 27.8964C101.039 27.6656 101.154 27.3966 101.193 27.0889C101.232 26.7427 101.27 26.435 101.27 26.0888ZM109.529 29.5504C109.529 29.5888 109.529 29.6272 109.49 29.6657C109.451 29.7041 109.413 29.7042 109.374 29.7427C109.336 29.7427 109.258 29.7812 109.143 29.7812C109.027 29.7812 108.911 29.7812 108.795 29.7812C108.641 29.7812 108.525 29.7812 108.448 29.7812C108.371 29.7812 108.294 29.7427 108.217 29.7427C108.178 29.7042 108.101 29.7041 108.101 29.6657C108.062 29.6272 108.062 29.5888 108.062 29.5504V23.6273H106.48C106.364 24.5119 106.249 25.2427 106.171 25.8965C106.056 26.5504 105.94 27.0888 105.824 27.5503C105.708 28.0118 105.554 28.3964 105.4 28.7041C105.245 29.0118 105.091 29.2427 104.898 29.3966C104.705 29.5504 104.473 29.7042 104.242 29.7427C104.01 29.8196 103.74 29.858 103.431 29.858C103.354 29.858 103.316 29.8579 103.277 29.8195C103.238 29.8195 103.2 29.7811 103.161 29.7427C103.123 29.7042 103.123 29.6273 103.123 29.5504C103.123 29.4734 103.123 29.3964 103.123 29.2426C103.123 29.0887 103.123 28.9349 103.123 28.8579C103.123 28.7426 103.161 28.6658 103.161 28.6273C103.161 28.5889 103.2 28.5503 103.238 28.5118C103.277 28.5118 103.316 28.4733 103.354 28.4733C103.47 28.4733 103.586 28.435 103.701 28.3965C103.817 28.3581 103.933 28.2426 104.01 28.1272C104.126 27.9734 104.203 27.7811 104.319 27.5503C104.396 27.2811 104.512 26.9733 104.589 26.5503C104.666 26.1272 104.782 25.6272 104.859 25.0503C104.936 24.4349 105.052 23.7426 105.129 22.9349C105.168 22.7426 105.206 22.5887 105.284 22.5118C105.361 22.4349 105.438 22.3965 105.592 22.3965H109.22C109.374 22.3965 109.451 22.4349 109.529 22.5118C109.606 22.5887 109.644 22.7043 109.644 22.8581V29.5504H109.529ZM117.748 26.0118C117.748 26.6272 117.671 27.1658 117.517 27.6273C117.362 28.1273 117.131 28.5118 116.822 28.8579C116.513 29.2041 116.166 29.4349 115.703 29.6272C115.279 29.8195 114.738 29.8965 114.159 29.8965C113.581 29.8965 113.079 29.8195 112.654 29.6657C112.23 29.5118 111.883 29.2811 111.574 28.9734C111.304 28.6658 111.072 28.2811 110.918 27.8196C110.763 27.3581 110.686 26.7812 110.686 26.1273C110.686 25.5504 110.763 25.0119 110.918 24.5119C111.072 24.0503 111.304 23.6272 111.612 23.3195C111.921 22.9734 112.269 22.7426 112.732 22.5503C113.156 22.358 113.696 22.2812 114.275 22.2812C114.816 22.2812 115.317 22.3579 115.742 22.5118C116.166 22.6656 116.513 22.8965 116.822 23.2042C117.092 23.5119 117.324 23.8965 117.478 24.3581C117.671 24.8196 117.748 25.358 117.748 26.0118ZM116.166 26.0888C116.166 25.7042 116.127 25.358 116.089 25.0503C116.012 24.7426 115.935 24.4733 115.78 24.2426C115.626 24.0118 115.433 23.858 115.201 23.7041C114.97 23.5888 114.661 23.5118 114.275 23.5118C113.928 23.5118 113.619 23.5888 113.349 23.7041C113.117 23.858 112.886 24.0118 112.732 24.2426C112.577 24.4733 112.461 24.7426 112.423 25.0503C112.346 25.358 112.346 25.6657 112.346 26.0118C112.346 26.3964 112.384 26.7812 112.423 27.0889C112.5 27.3966 112.577 27.6656 112.732 27.8964C112.886 28.1272 113.079 28.2812 113.311 28.435C113.542 28.5504 113.851 28.6273 114.237 28.6273C114.584 28.6273 114.893 28.5504 115.163 28.435C115.394 28.2812 115.626 28.1272 115.742 27.8964C115.896 27.6656 116.012 27.3966 116.05 27.0889C116.166 26.7427 116.166 26.435 116.166 26.0888ZM123.189 23.0504C123.189 23.1658 123.189 23.2426 123.189 23.3195C123.189 23.3964 123.151 23.4734 123.151 23.5118C123.112 23.5503 123.112 23.5889 123.074 23.6273C123.035 23.6658 122.997 23.6656 122.958 23.6656H120.527V29.5889C120.527 29.6273 120.527 29.6657 120.488 29.7042C120.45 29.7426 120.411 29.7427 120.372 29.7812C120.334 29.7812 120.257 29.8195 120.141 29.8195C120.064 29.8195 119.909 29.8195 119.794 29.8195C119.639 29.8195 119.523 29.8195 119.446 29.8195C119.331 29.8195 119.253 29.7812 119.215 29.7812C119.176 29.7427 119.099 29.7426 119.099 29.7042C119.06 29.6657 119.06 29.6273 119.06 29.5889V22.8964C119.06 22.7426 119.099 22.6272 119.176 22.5503C119.253 22.4734 119.369 22.435 119.485 22.435H122.997C123.074 22.435 123.112 22.4734 123.151 22.5888C123.151 22.6657 123.189 22.8196 123.189 23.0504ZM130.02 29.5504C130.02 29.5888 130.02 29.6272 129.981 29.6657C129.943 29.7041 129.904 29.7042 129.866 29.7427C129.827 29.7427 129.75 29.7812 129.634 29.7812C129.518 29.7812 129.403 29.7812 129.287 29.7812C129.132 29.7812 129.017 29.7812 128.94 29.7812C128.824 29.7812 128.785 29.7427 128.708 29.7427C128.669 29.7042 128.631 29.7041 128.592 29.6657C128.553 29.6272 128.554 29.5888 128.554 29.5504V25.6657C128.554 25.5119 128.554 25.358 128.554 25.2426C128.554 25.0888 128.554 24.9734 128.554 24.858C128.515 24.8964 128.476 24.9734 128.438 25.0503C128.399 25.1272 128.361 25.2042 128.322 25.2811C128.283 25.358 128.206 25.435 128.168 25.5119C128.129 25.5888 128.052 25.6658 128.013 25.7427L125.466 29.5504C125.428 29.5888 125.389 29.6272 125.389 29.6657C125.351 29.7041 125.312 29.7042 125.273 29.7427C125.235 29.7427 125.158 29.7812 125.081 29.7812C125.003 29.7812 124.926 29.7812 124.81 29.7812C124.656 29.7812 124.54 29.7812 124.463 29.7812C124.386 29.7812 124.309 29.7427 124.231 29.7427C124.193 29.7042 124.154 29.7041 124.116 29.6657C124.077 29.6272 124.077 29.5888 124.077 29.5504V22.5888C124.077 22.5503 124.077 22.5119 124.116 22.4735C124.154 22.435 124.193 22.4349 124.231 22.3965C124.309 22.3965 124.386 22.358 124.463 22.358C124.54 22.358 124.695 22.358 124.81 22.358C124.926 22.358 125.08 22.358 125.158 22.358C125.235 22.358 125.312 22.3965 125.389 22.3965C125.428 22.3965 125.505 22.435 125.505 22.4735C125.543 22.5119 125.543 22.5503 125.543 22.5888V26.4734C125.543 26.5888 125.543 26.7042 125.543 26.8581C125.543 27.0119 125.543 27.1273 125.543 27.2427C125.621 27.1273 125.698 27.0119 125.775 26.8196C125.891 26.6657 125.968 26.5118 126.084 26.3579L128.631 22.5503C128.669 22.5118 128.669 22.4734 128.708 22.435C128.747 22.3965 128.785 22.3964 128.824 22.358C128.862 22.358 128.939 22.3195 129.017 22.3195C129.094 22.3195 129.171 22.3195 129.325 22.3195C129.48 22.3195 129.596 22.3195 129.673 22.3195C129.75 22.3195 129.827 22.358 129.904 22.358C129.943 22.358 129.981 22.3965 130.02 22.435C130.059 22.4734 130.059 22.5118 130.059 22.5503V29.5504H130.02ZM136.658 29.5504C136.658 29.5888 136.658 29.6272 136.619 29.6657C136.58 29.7041 136.542 29.7042 136.503 29.7427C136.464 29.7427 136.387 29.7812 136.272 29.7812C136.194 29.7812 136.04 29.7812 135.924 29.7812C135.77 29.7812 135.654 29.7812 135.577 29.7812C135.461 29.7812 135.384 29.7427 135.345 29.7427C135.268 29.7042 135.23 29.7041 135.23 29.6657C135.191 29.6272 135.191 29.5888 135.191 29.5504V27.0504C134.998 27.0504 134.805 27.0889 134.612 27.0889C134.419 27.0889 134.226 27.0889 134.033 27.0889C133.609 27.0889 133.262 27.0503 132.914 26.9734C132.567 26.8964 132.297 26.7811 132.065 26.5888C131.834 26.3964 131.641 26.1657 131.486 25.858C131.371 25.5503 131.293 25.1657 131.293 24.6657V22.5503C131.293 22.5118 131.293 22.4734 131.332 22.435C131.371 22.3965 131.409 22.3964 131.448 22.358C131.486 22.3195 131.564 22.3195 131.679 22.3195C131.756 22.3195 131.872 22.3195 132.027 22.3195C132.181 22.3195 132.297 22.3195 132.374 22.3195C132.49 22.3195 132.567 22.358 132.606 22.358C132.683 22.3964 132.721 22.3965 132.721 22.435C132.76 22.4734 132.76 22.5118 132.76 22.5503V24.5119C132.76 24.7426 132.798 24.9349 132.837 25.0888C132.876 25.2426 132.953 25.3965 133.069 25.5119C133.184 25.6273 133.339 25.7043 133.493 25.7427C133.686 25.7812 133.879 25.8195 134.188 25.8195C134.342 25.8195 134.535 25.8195 134.689 25.8195C134.844 25.8195 134.998 25.781 135.191 25.781V22.5503C135.191 22.5118 135.191 22.4734 135.23 22.435C135.268 22.3965 135.307 22.3964 135.345 22.358C135.423 22.3195 135.5 22.3195 135.577 22.3195C135.654 22.3195 135.77 22.3195 135.924 22.3195C136.079 22.3195 136.194 22.3195 136.272 22.3195C136.349 22.3195 136.426 22.358 136.503 22.358C136.542 22.3964 136.58 22.3965 136.619 22.435C136.658 22.4734 136.658 22.5118 136.658 22.5503V29.5504ZM142.639 29.1658C142.639 29.2811 142.639 29.3579 142.639 29.4349C142.639 29.5118 142.6 29.5503 142.6 29.6272C142.562 29.6656 142.562 29.7042 142.523 29.7427C142.485 29.7811 142.446 29.7812 142.446 29.7812H138.741C138.626 29.7812 138.51 29.7426 138.433 29.6657C138.355 29.5888 138.317 29.4734 138.317 29.3196V22.9349C138.317 22.7811 138.355 22.6657 138.433 22.5888C138.51 22.5119 138.626 22.4735 138.741 22.4735H142.407C142.446 22.4735 142.485 22.4733 142.485 22.5118C142.523 22.5503 142.523 22.5504 142.562 22.6273C142.562 22.6658 142.6 22.7427 142.6 22.8196C142.6 22.8965 142.6 22.9733 142.6 23.0887C142.6 23.2041 142.6 23.2811 142.6 23.358C142.6 23.4349 142.562 23.4734 142.562 23.5503C142.523 23.5888 142.523 23.6272 142.485 23.6656C142.446 23.7041 142.446 23.7041 142.407 23.7041H139.783V25.4734H141.983C142.022 25.4734 142.06 25.4734 142.06 25.5119C142.099 25.5504 142.099 25.5503 142.137 25.6272C142.176 25.6657 142.176 25.7426 142.176 25.8195C142.176 25.8964 142.176 25.9734 142.176 26.0888C142.176 26.2042 142.176 26.281 142.176 26.3579C142.176 26.4349 142.137 26.4733 142.137 26.5503C142.099 26.5887 142.099 26.6273 142.06 26.6273C142.022 26.6657 142.022 26.6658 141.983 26.6658H139.783V28.7426H142.446C142.485 28.7426 142.523 28.7427 142.523 28.7811C142.562 28.8196 142.562 28.8195 142.6 28.8964C142.639 28.9349 142.639 29.0118 142.639 29.0888C142.639 28.9734 142.639 29.0504 142.639 29.1658ZM148.775 28.6273C148.775 28.7043 148.775 28.8195 148.775 28.8579C148.775 28.9349 148.775 28.9735 148.736 29.0119C148.736 29.0504 148.698 29.0888 148.698 29.1273C148.659 29.1657 148.659 29.2041 148.621 29.2426C148.582 29.281 148.505 29.3581 148.389 29.3966C148.273 29.4735 148.119 29.5119 147.964 29.5889C147.81 29.6658 147.579 29.7042 147.386 29.7427C147.154 29.7811 146.923 29.8195 146.652 29.8195C146.151 29.8195 145.688 29.7427 145.302 29.5889C144.877 29.435 144.568 29.2041 144.26 28.8964C143.99 28.5888 143.758 28.2041 143.604 27.7426C143.449 27.2811 143.372 26.7427 143.372 26.1273C143.372 25.5119 143.449 24.9349 143.642 24.4734C143.797 23.9734 144.028 23.5889 144.337 23.2427C144.646 22.8966 144.993 22.6656 145.417 22.5118C145.842 22.3579 146.305 22.2427 146.807 22.2427C147 22.2427 147.193 22.2427 147.386 22.2812C147.579 22.3196 147.733 22.358 147.926 22.3965C148.08 22.4349 148.235 22.5119 148.35 22.5888C148.466 22.6657 148.582 22.7426 148.621 22.7811C148.659 22.8196 148.698 22.8579 148.736 22.8964C148.775 22.9349 148.775 22.9734 148.775 23.0119C148.775 23.0504 148.813 23.1273 148.813 23.2042C148.813 23.2811 148.813 23.3579 148.813 23.4733C148.813 23.5887 148.813 23.6658 148.813 23.7811C148.813 23.8581 148.775 23.935 148.775 23.9734C148.775 24.0119 148.736 24.0503 148.698 24.0888C148.659 24.1272 148.621 24.1273 148.621 24.1273C148.582 24.1273 148.505 24.0889 148.389 24.0119C148.312 23.935 148.196 23.8581 148.042 23.7811C147.887 23.7042 147.733 23.6273 147.54 23.5503C147.347 23.4734 147.115 23.435 146.845 23.435C146.537 23.435 146.305 23.5119 146.074 23.6273C145.842 23.7427 145.649 23.9349 145.495 24.1273C145.34 24.358 145.225 24.6273 145.109 24.935C145.032 25.2427 144.993 25.5888 144.993 26.0118C144.993 26.4349 145.032 26.8195 145.109 27.1272C145.186 27.4349 145.34 27.7041 145.495 27.8964C145.649 28.0887 145.842 28.2426 146.074 28.358C146.305 28.4734 146.575 28.5118 146.845 28.5118C147.115 28.5118 147.347 28.4735 147.54 28.435C147.733 28.3581 147.887 28.3196 148.042 28.2427C148.196 28.1658 148.312 28.0889 148.389 28.0504C148.466 27.9735 148.543 27.9734 148.582 27.9734C148.62 27.9734 148.659 27.9734 148.659 28.0119C148.698 28.0119 148.698 28.0503 148.736 28.0887C148.736 28.1272 148.775 28.2041 148.775 28.281C148.775 28.3964 148.775 28.5119 148.775 28.6273Z" fill="#BEBEBE"/>
<path fill-rule="evenodd" clip-rule="evenodd" d="M155.567 29.3966C155.567 29.435 155.567 29.4734 155.528 29.5119C155.49 29.5503 155.451 29.5504 155.412 29.5889C155.335 29.5889 155.258 29.6274 155.181 29.6274C155.065 29.6274 154.949 29.6274 154.795 29.6274C154.641 29.6274 154.486 29.6274 154.409 29.6274C154.293 29.6274 154.216 29.5889 154.177 29.5889C154.1 29.5504 154.062 29.5503 154.023 29.5119C153.985 29.4734 153.984 29.435 153.946 29.3966L153.367 27.7426C153.29 27.5118 153.213 27.3197 153.097 27.1274C153.02 26.9735 152.904 26.8197 152.788 26.7428C152.672 26.6274 152.557 26.5889 152.402 26.5119C152.248 26.4735 152.094 26.4349 151.939 26.4349H151.592V29.3966C151.592 29.435 151.592 29.4734 151.553 29.5119C151.515 29.5503 151.476 29.5504 151.438 29.5889C151.399 29.6273 151.322 29.6274 151.206 29.6274C151.129 29.6274 150.974 29.6274 150.859 29.6274C150.704 29.6274 150.589 29.6274 150.511 29.6274C150.396 29.6274 150.357 29.5889 150.28 29.5889C150.241 29.5504 150.164 29.5503 150.164 29.5119C150.126 29.4734 150.126 29.435 150.126 29.3966V22.4735C150.126 22.435 150.126 22.3964 150.164 22.358C150.203 22.3195 150.241 22.3196 150.28 22.2812C150.318 22.2812 150.396 22.2427 150.511 22.2427C150.627 22.2427 150.743 22.2427 150.859 22.2427C151.013 22.2427 151.129 22.2427 151.206 22.2427C151.283 22.2427 151.36 22.2812 151.438 22.2812C151.476 22.2812 151.515 22.3195 151.553 22.358C151.592 22.3964 151.592 22.435 151.592 22.4735V25.2426H151.939C152.094 25.2426 152.248 25.2043 152.402 25.1658C152.518 25.1273 152.634 25.0504 152.75 24.935C152.866 24.8196 152.943 24.7042 153.02 24.5504C153.097 24.3965 153.174 24.2042 153.251 23.9734L153.753 22.512C153.792 22.4735 153.792 22.3965 153.83 22.3965C153.869 22.358 153.907 22.3197 153.946 22.3197C154.023 22.2812 154.1 22.2812 154.177 22.2812C154.293 22.2812 154.409 22.2812 154.563 22.2812C154.718 22.2812 154.833 22.2812 154.911 22.2812C155.026 22.2812 155.065 22.3197 155.142 22.3197C155.181 22.3197 155.22 22.358 155.258 22.3965C155.297 22.4349 155.297 22.4735 155.297 22.512C155.297 22.5504 155.297 22.6274 155.258 22.7043C155.258 22.7812 155.219 22.858 155.181 22.9734L154.679 24.2811C154.602 24.5118 154.486 24.7426 154.409 24.8965C154.332 25.0503 154.216 25.2042 154.139 25.3196C154.023 25.435 153.946 25.5503 153.83 25.6272C153.714 25.7041 153.599 25.7811 153.444 25.8195C153.599 25.8964 153.753 25.9734 153.869 26.0503C153.985 26.1273 154.1 26.2428 154.216 26.3581C154.332 26.4735 154.409 26.6273 154.525 26.8196C154.641 27.0119 154.718 27.2427 154.834 27.4735L155.451 29.0119C155.528 29.1658 155.567 29.2811 155.567 29.3196C155.567 29.3196 155.567 29.3581 155.567 29.3966ZM162.745 29.0504C162.783 29.2043 162.822 29.2811 162.822 29.3581C162.822 29.435 162.822 29.5119 162.783 29.5504C162.745 29.5888 162.667 29.6274 162.552 29.6274C162.436 29.6274 162.281 29.6274 162.127 29.6274C161.934 29.6274 161.78 29.6274 161.664 29.6274C161.548 29.6274 161.471 29.6273 161.433 29.5889C161.394 29.5889 161.317 29.5503 161.317 29.5119C161.278 29.4734 161.278 29.435 161.278 29.3966L160.776 27.9349H157.998L157.535 29.3581C157.535 29.3965 157.496 29.4734 157.458 29.4734C157.419 29.5118 157.381 29.5504 157.342 29.5504C157.303 29.5888 157.226 29.5889 157.11 29.5889C156.995 29.5889 156.879 29.5889 156.724 29.5889C156.532 29.5889 156.416 29.5889 156.3 29.5889C156.184 29.5889 156.146 29.5503 156.107 29.5119C156.068 29.4734 156.068 29.3965 156.068 29.3196C156.068 29.2426 156.107 29.1273 156.146 29.0119L158.422 22.512C158.461 22.4351 158.461 22.3964 158.5 22.358C158.538 22.3195 158.577 22.2812 158.654 22.2812C158.731 22.2427 158.808 22.2427 158.924 22.2427C159.04 22.2427 159.194 22.2427 159.387 22.2427C159.619 22.2427 159.773 22.2427 159.927 22.2427C160.043 22.2427 160.159 22.2427 160.236 22.2812C160.313 22.3196 160.352 22.3195 160.391 22.358C160.429 22.3964 160.468 22.4735 160.468 22.512L162.745 29.0504ZM159.349 23.6658L158.307 26.7811H160.391L159.349 23.6658ZM168.842 29.3966C168.842 29.435 168.842 29.4734 168.803 29.5119C168.765 29.5503 168.726 29.5504 168.687 29.5889C168.649 29.5889 168.572 29.6274 168.456 29.6274C168.34 29.6274 168.224 29.6274 168.109 29.6274C167.954 29.6274 167.838 29.6274 167.761 29.6274C167.684 29.6274 167.607 29.5889 167.53 29.5889C167.453 29.5504 167.414 29.5503 167.414 29.5119C167.375 29.4734 167.375 29.435 167.375 29.3966V26.6658H166.835C166.604 26.6658 166.449 26.7043 166.333 26.7428C166.218 26.7812 166.102 26.858 166.025 26.9734C165.948 27.0503 165.832 27.2043 165.793 27.3197C165.716 27.4735 165.639 27.6273 165.6 27.8196L165.06 29.3966C165.021 29.435 165.021 29.4734 164.983 29.5119C164.944 29.5503 164.906 29.5504 164.828 29.5889C164.751 29.6273 164.674 29.6274 164.597 29.6274C164.481 29.6274 164.365 29.6274 164.211 29.6274C164.018 29.6274 163.902 29.6274 163.786 29.6274C163.671 29.6274 163.594 29.5889 163.555 29.5889C163.516 29.5504 163.478 29.5503 163.439 29.5119C163.439 29.4734 163.4 29.4735 163.4 29.4351C163.4 29.3966 163.401 29.358 163.439 29.2811C163.439 29.2426 163.478 29.1274 163.516 29.0504L164.057 27.5888C164.134 27.3965 164.211 27.2427 164.288 27.0889C164.365 26.935 164.442 26.8196 164.558 26.7043C164.635 26.5889 164.751 26.5119 164.867 26.4349C164.983 26.358 165.099 26.2811 165.214 26.2426C164.983 26.1657 164.79 26.0889 164.597 25.9735C164.404 25.8581 164.25 25.7428 164.134 25.5889C164.018 25.4351 163.902 25.2811 163.864 25.0888C163.786 24.8965 163.786 24.6658 163.786 24.4351C163.786 24.0889 163.825 23.7811 163.941 23.5118C164.057 23.2426 164.25 23.0119 164.443 22.8196C164.674 22.6273 164.944 22.4734 165.292 22.3965C165.639 22.2811 166.102 22.2427 166.719 22.2427H168.533C168.649 22.2427 168.765 22.2811 168.842 22.358C168.919 22.4349 168.958 22.5504 168.958 22.7043V29.3966H168.842ZM167.337 23.3965H166.565C166.256 23.3965 165.986 23.4351 165.832 23.4735C165.677 23.512 165.523 23.5888 165.446 23.7041C165.33 23.7811 165.253 23.8966 165.214 24.0504C165.176 24.1658 165.137 24.3195 165.137 24.4734C165.137 24.6272 165.176 24.7811 165.214 24.8965C165.253 25.0119 165.33 25.1272 165.446 25.2426C165.562 25.358 165.677 25.3965 165.832 25.4734C165.986 25.5119 166.218 25.5504 166.526 25.5504H167.337V23.3965ZM125.852 43.8196C125.852 43.8581 125.852 43.8965 125.814 43.9349C125.775 43.9734 125.737 43.9735 125.698 44.0119C125.621 44.0119 125.544 44.0504 125.466 44.0504C125.351 44.0504 125.235 44.0504 125.081 44.0504C124.926 44.0504 124.772 44.0504 124.695 44.0504C124.579 44.0504 124.502 44.0119 124.463 44.0119C124.386 43.9735 124.347 43.9734 124.309 43.9349C124.27 43.8965 124.27 43.8581 124.231 43.8196L123.653 42.1657C123.575 41.9349 123.498 41.7428 123.383 41.5504C123.305 41.3966 123.19 41.2428 123.074 41.1658C122.958 41.0504 122.842 41.0119 122.688 40.935C122.533 40.8966 122.379 40.858 122.225 40.858H121.878V43.8196C121.878 43.8581 121.878 43.8965 121.839 43.9349C121.8 43.9734 121.762 43.9735 121.723 44.0119C121.685 44.0504 121.607 44.0504 121.492 44.0504C121.415 44.0504 121.26 44.0504 121.144 44.0504C120.99 44.0504 120.874 44.0504 120.797 44.0504C120.681 44.0504 120.643 44.0119 120.565 44.0119C120.527 43.9735 120.45 43.9734 120.45 43.9349C120.411 43.8965 120.411 43.8581 120.411 43.8196V36.8966C120.411 36.8581 120.411 36.8195 120.45 36.7811C120.488 36.7426 120.527 36.7427 120.565 36.7043C120.604 36.7043 120.681 36.6658 120.797 36.6658C120.913 36.6658 121.028 36.6658 121.144 36.6658C121.299 36.6658 121.415 36.6658 121.492 36.6658C121.569 36.6658 121.646 36.7043 121.723 36.7043C121.762 36.7043 121.839 36.7426 121.839 36.7811C121.878 36.8195 121.878 36.8581 121.878 36.8966V39.6657H122.225C122.379 39.6657 122.533 39.6273 122.688 39.5889C122.804 39.5504 122.92 39.4734 123.035 39.3581C123.151 39.2427 123.228 39.1273 123.305 38.9734C123.383 38.8196 123.46 38.6273 123.537 38.3965L124.039 36.9351C124.039 36.8966 124.077 36.8196 124.116 36.8196C124.154 36.7811 124.193 36.7428 124.231 36.7428C124.309 36.7043 124.386 36.7043 124.463 36.7043C124.579 36.7043 124.695 36.7043 124.849 36.7043C125.003 36.7043 125.119 36.7043 125.196 36.7043C125.312 36.7043 125.351 36.7428 125.428 36.7428C125.466 36.7428 125.505 36.7811 125.544 36.8196C125.582 36.858 125.582 36.8966 125.582 36.9351C125.582 36.9735 125.582 37.0504 125.544 37.1274C125.544 37.2043 125.505 37.2811 125.466 37.3965L124.965 38.7041C124.888 38.9349 124.772 39.1657 124.695 39.3196C124.617 39.4734 124.502 39.6273 124.424 39.7427C124.309 39.8581 124.232 39.9734 124.116 40.0503C124 40.1272 123.884 40.2041 123.73 40.2426C123.884 40.3195 124.039 40.3965 124.154 40.4734C124.27 40.5503 124.386 40.6658 124.502 40.7812C124.617 40.8966 124.695 41.0503 124.81 41.2426C124.926 41.4349 125.003 41.6658 125.119 41.8966L125.737 43.435C125.814 43.5889 125.852 43.7042 125.852 43.7426C125.852 43.7426 125.852 43.7812 125.852 43.8196ZM132.683 43.8196C132.683 43.8581 132.683 43.8965 132.644 43.9349C132.606 43.9734 132.567 43.9735 132.528 44.0119C132.49 44.0119 132.413 44.0504 132.297 44.0504C132.181 44.0504 132.065 44.0504 131.95 44.0504C131.795 44.0504 131.679 44.0504 131.602 44.0504C131.525 44.0504 131.448 44.0119 131.371 44.0119C131.332 43.9735 131.255 43.9734 131.255 43.9349C131.216 43.8965 131.216 43.8581 131.216 43.8196V37.8966H129.634C129.518 38.7812 129.403 39.5119 129.325 40.1658C129.21 40.8196 129.094 41.358 128.978 41.8196C128.862 42.2811 128.708 42.6657 128.554 42.9734C128.399 43.2811 128.245 43.512 128.052 43.6658C127.859 43.8197 127.627 43.9735 127.396 44.0119C127.164 44.0889 126.894 44.1273 126.586 44.1273C126.508 44.1273 126.47 44.1272 126.431 44.0888C126.393 44.0888 126.354 44.0504 126.315 44.0119C126.277 43.9735 126.277 43.8966 126.277 43.8196C126.277 43.7427 126.277 43.6657 126.277 43.5118C126.277 43.358 126.277 43.2041 126.277 43.1272C126.277 43.0118 126.315 42.9351 126.315 42.8966C126.354 42.8581 126.354 42.8196 126.393 42.7811C126.431 42.7811 126.47 42.7426 126.508 42.7426C126.624 42.7426 126.74 42.7043 126.856 42.6658C126.971 42.6273 127.087 42.5119 127.164 42.3965C127.28 42.2426 127.357 42.0503 127.473 41.8196C127.55 41.5503 127.666 41.2426 127.743 40.8195C127.82 40.3964 127.936 39.8965 128.013 39.3196C128.091 38.7042 128.206 38.0119 128.283 37.2042C128.322 37.0119 128.361 36.858 128.438 36.7811C128.515 36.7041 128.592 36.6658 128.747 36.6658H132.374C132.528 36.6658 132.606 36.7041 132.683 36.7811C132.76 36.858 132.799 36.9735 132.799 37.1274V43.8196H132.683ZM140.285 43.8196C140.285 43.8581 140.285 43.8965 140.246 43.9349C140.208 43.9734 140.169 43.9735 140.131 44.0119C140.092 44.0119 140.015 44.0504 139.899 44.0504C139.783 44.0504 139.668 44.0504 139.552 44.0504C139.436 44.0504 139.282 44.0504 139.205 44.0504C139.089 44.0504 139.05 44.0119 138.973 44.0119C138.934 43.9735 138.896 43.9734 138.857 43.9349C138.819 43.8965 138.819 43.8581 138.819 43.8196V39.935C138.819 39.7811 138.819 39.6273 138.819 39.5119C138.819 39.358 138.819 39.2426 138.819 39.1273C138.78 39.1657 138.741 39.2426 138.703 39.3196C138.664 39.3965 138.626 39.4734 138.587 39.5504C138.548 39.6273 138.471 39.7043 138.433 39.7812C138.394 39.8581 138.317 39.9351 138.278 40.012L135.731 43.8196C135.693 43.8581 135.654 43.8965 135.654 43.9349C135.616 43.9734 135.577 43.9735 135.538 44.0119C135.5 44.0119 135.423 44.0504 135.346 44.0504C135.268 44.0504 135.191 44.0504 135.075 44.0504C134.921 44.0504 134.805 44.0504 134.728 44.0504C134.651 44.0504 134.574 44.0119 134.496 44.0119C134.458 43.9735 134.419 43.9734 134.381 43.9349C134.342 43.8965 134.342 43.8581 134.342 43.8196V36.8581C134.342 36.8196 134.342 36.7812 134.381 36.7428C134.419 36.7043 134.458 36.7042 134.496 36.6658C134.574 36.6658 134.651 36.6273 134.728 36.6273C134.805 36.6273 134.96 36.6273 135.075 36.6273C135.23 36.6273 135.345 36.6273 135.423 36.6273C135.5 36.6273 135.577 36.6658 135.654 36.6658C135.693 36.6658 135.77 36.7043 135.77 36.7428C135.809 36.7812 135.809 36.8196 135.809 36.8581V40.7427C135.809 40.8581 135.809 40.9735 135.809 41.1273C135.809 41.2812 135.809 41.3966 135.809 41.5119C135.886 41.3966 135.963 41.2811 136.04 41.0888C136.156 40.935 136.233 40.7811 136.349 40.6272L138.896 36.8196C138.934 36.7811 138.934 36.7427 138.973 36.7043C139.012 36.6658 139.05 36.6657 139.089 36.6273C139.127 36.6273 139.204 36.5888 139.282 36.5888C139.359 36.5888 139.436 36.5888 139.59 36.5888C139.745 36.5888 139.861 36.5888 139.938 36.5888C140.015 36.5888 140.092 36.6273 140.169 36.6273C140.208 36.6273 140.246 36.6658 140.285 36.7043C140.324 36.7427 140.324 36.7811 140.324 36.8196V43.8196H140.285ZM147.617 43.8196C147.617 43.8581 147.617 43.8965 147.579 43.9349C147.54 43.9734 147.501 43.9735 147.463 44.0119C147.424 44.0119 147.347 44.0504 147.231 44.0504C147.154 44.0504 147 44.0504 146.884 44.0504C146.73 44.0504 146.614 44.0504 146.498 44.0504C146.382 44.0504 146.344 44.0119 146.266 44.0119C146.228 43.9735 146.189 43.9734 146.151 43.9349C146.112 43.8965 146.112 43.8581 146.112 43.8196V40.858H143.334V43.8196C143.334 43.8581 143.334 43.8965 143.295 43.9349C143.257 43.9734 143.218 43.9735 143.179 44.0119C143.141 44.0119 143.063 44.0504 142.948 44.0504C142.871 44.0504 142.716 44.0504 142.6 44.0504C142.485 44.0504 142.33 44.0504 142.253 44.0504C142.137 44.0504 142.099 44.0119 142.022 44.0119C141.983 43.9735 141.906 43.9734 141.906 43.9349C141.867 43.8965 141.867 43.8581 141.867 43.8196V36.8966C141.867 36.8581 141.867 36.8195 141.906 36.7811C141.944 36.7426 141.983 36.7427 142.022 36.7043C142.06 36.6658 142.137 36.6658 142.253 36.6658C142.369 36.6658 142.485 36.6658 142.6 36.6658C142.716 36.6658 142.871 36.6658 142.948 36.6658C143.063 36.6658 143.102 36.7043 143.179 36.7043C143.218 36.7427 143.295 36.7426 143.295 36.7811C143.334 36.8195 143.334 36.8581 143.334 36.8966V39.5889H146.112V36.8966C146.112 36.8581 146.112 36.8195 146.151 36.7811C146.189 36.7426 146.228 36.7427 146.266 36.7043C146.305 36.7043 146.382 36.6658 146.498 36.6658C146.614 36.6658 146.73 36.6658 146.884 36.6658C147.038 36.6658 147.154 36.6658 147.231 36.6658C147.308 36.6658 147.386 36.7043 147.463 36.7043C147.501 36.7427 147.579 36.7426 147.579 36.7811C147.617 36.8195 147.617 36.8581 147.617 36.8966V43.8196ZM155.219 43.8196C155.219 43.8581 155.219 43.8965 155.181 43.9349C155.142 43.9734 155.104 43.9735 155.065 44.0119C155.027 44.0119 154.949 44.0504 154.834 44.0504C154.718 44.0504 154.602 44.0504 154.486 44.0504C154.332 44.0504 154.216 44.0504 154.139 44.0504C154.023 44.0504 153.985 44.0119 153.907 44.0119C153.869 43.9735 153.792 43.9734 153.792 43.9349C153.753 43.8965 153.753 43.8581 153.753 43.8196V39.935C153.753 39.7811 153.753 39.6273 153.753 39.5119C153.753 39.358 153.753 39.2426 153.753 39.1273C153.714 39.1657 153.676 39.2426 153.637 39.3196C153.599 39.3965 153.56 39.4734 153.522 39.5504C153.483 39.6273 153.406 39.7043 153.367 39.7812C153.328 39.8581 153.251 39.9351 153.213 40.012L150.666 43.8196C150.627 43.8581 150.589 43.8965 150.589 43.9349C150.55 43.9734 150.511 43.9735 150.473 44.0119C150.434 44.0119 150.357 44.0504 150.28 44.0504C150.203 44.0504 150.126 44.0504 150.01 44.0504C149.855 44.0504 149.74 44.0504 149.663 44.0504C149.585 44.0504 149.508 44.0119 149.431 44.0119C149.392 43.9735 149.354 43.9734 149.315 43.9349C149.315 43.8965 149.277 43.8581 149.277 43.8196V36.8581C149.277 36.8196 149.276 36.7812 149.315 36.7428C149.354 36.7043 149.392 36.7042 149.431 36.6658C149.47 36.6658 149.585 36.6273 149.663 36.6273C149.74 36.6273 149.894 36.6273 150.01 36.6273C150.164 36.6273 150.28 36.6273 150.357 36.6273C150.434 36.6273 150.511 36.6658 150.589 36.6658C150.627 36.6658 150.704 36.7043 150.704 36.7428C150.743 36.7812 150.743 36.8196 150.743 36.8581V40.7427C150.743 40.8581 150.743 40.9735 150.743 41.1273C150.743 41.2812 150.743 41.3966 150.743 41.5119C150.82 41.3966 150.897 41.2811 150.975 41.0888C151.09 40.935 151.167 40.7811 151.283 40.6272L153.83 36.8196C153.869 36.7811 153.869 36.7427 153.907 36.7043C153.946 36.6658 153.985 36.6657 154.023 36.6273C154.062 36.6273 154.139 36.5888 154.216 36.5888C154.293 36.5888 154.37 36.5888 154.525 36.5888C154.679 36.5888 154.795 36.5888 154.872 36.5888C154.949 36.5888 155.026 36.6273 155.104 36.6273C155.142 36.6273 155.181 36.6658 155.219 36.7043C155.258 36.7427 155.258 36.7811 155.258 36.8196V43.8196H155.219ZM162.281 43.8196C162.281 43.8581 162.281 43.8965 162.243 43.9349C162.204 43.9734 162.166 43.9735 162.127 44.0119C162.05 44.0119 161.973 44.0504 161.896 44.0504C161.78 44.0504 161.664 44.0504 161.51 44.0504C161.355 44.0504 161.201 44.0504 161.124 44.0504C161.008 44.0504 160.931 44.0119 160.892 44.0119C160.815 43.9735 160.776 43.9734 160.738 43.9349C160.699 43.8965 160.699 43.8581 160.661 43.8196L160.082 42.1657C160.005 41.9349 159.927 41.7428 159.812 41.5504C159.734 41.3966 159.619 41.2428 159.503 41.1658C159.387 41.0504 159.271 41.0119 159.117 40.935C158.963 40.8966 158.808 40.858 158.654 40.858H158.307V43.8196C158.307 43.8581 158.307 43.8965 158.268 43.9349C158.229 43.9734 158.191 43.9735 158.152 44.0119C158.114 44.0504 158.037 44.0504 157.921 44.0504C157.844 44.0504 157.689 44.0504 157.574 44.0504C157.458 44.0504 157.303 44.0504 157.226 44.0504C157.11 44.0504 157.072 44.0119 156.995 44.0119C156.956 43.9735 156.879 43.9734 156.879 43.9349C156.84 43.8965 156.84 43.8581 156.84 43.8196V36.8966C156.84 36.8581 156.84 36.8195 156.879 36.7811C156.917 36.7426 156.956 36.7427 156.995 36.7043C157.033 36.7043 157.11 36.6658 157.226 36.6658C157.342 36.6658 157.458 36.6658 157.574 36.6658C157.689 36.6658 157.844 36.6658 157.921 36.6658C157.998 36.6658 158.075 36.7043 158.152 36.7043C158.191 36.7043 158.268 36.7426 158.268 36.7811C158.307 36.8195 158.307 36.8581 158.307 36.8966V39.6657H158.654C158.808 39.6657 158.963 39.6273 159.117 39.5889C159.233 39.5504 159.349 39.4734 159.464 39.3581C159.58 39.2427 159.657 39.1273 159.734 38.9734C159.812 38.8196 159.889 38.6273 159.966 38.3965L160.468 36.9351C160.506 36.8966 160.506 36.8196 160.545 36.8196C160.583 36.7811 160.622 36.7428 160.661 36.7428C160.738 36.7043 160.815 36.7043 160.892 36.7043C160.969 36.7043 161.124 36.7043 161.278 36.7043C161.432 36.7043 161.548 36.7043 161.625 36.7043C161.741 36.7043 161.78 36.7428 161.857 36.7428C161.895 36.7428 161.934 36.7811 161.973 36.8196C162.011 36.858 162.011 36.8966 162.011 36.9351C162.011 36.9735 162.011 37.0504 161.973 37.1274C161.973 37.2043 161.934 37.2811 161.896 37.3965L161.394 38.7041C161.317 38.9349 161.201 39.1657 161.124 39.3196C161.047 39.4734 160.931 39.6273 160.854 39.7427C160.738 39.8581 160.661 39.9734 160.545 40.0503C160.429 40.1272 160.313 40.2041 160.159 40.2426C160.313 40.3195 160.468 40.3965 160.583 40.4734C160.699 40.5503 160.815 40.6658 160.931 40.7812C161.047 40.8966 161.162 41.0503 161.24 41.2426C161.355 41.4349 161.432 41.6658 161.548 41.8966L162.166 43.435C162.243 43.5889 162.281 43.7042 162.281 43.7426C162.281 43.7426 162.281 43.7812 162.281 43.8196ZM169.421 43.4735C169.459 43.6274 169.498 43.7042 169.498 43.7811C169.498 43.8581 169.498 43.935 169.459 43.9734C169.421 44.0119 169.343 44.0504 169.228 44.0504C169.112 44.0504 168.957 44.0504 168.803 44.0504C168.61 44.0504 168.456 44.0504 168.34 44.0504C168.224 44.0504 168.147 44.0504 168.109 44.0119C168.07 44.0119 168.031 43.9734 167.993 43.9349C167.954 43.8965 167.954 43.8581 167.954 43.8196L167.452 42.358H164.674L164.211 43.7811C164.211 43.8196 164.172 43.8964 164.134 43.8964C164.095 43.9349 164.057 43.9734 164.018 43.9734C163.979 44.0119 163.902 44.0119 163.786 44.0119C163.671 44.0119 163.555 44.0119 163.4 44.0119C163.208 44.0119 163.092 44.0119 162.976 44.0119C162.86 44.0119 162.822 43.9734 162.783 43.9349C162.745 43.8965 162.745 43.8196 162.745 43.7426C162.745 43.6657 162.783 43.5504 162.822 43.435L165.099 36.9351C165.137 36.8581 165.137 36.8195 165.176 36.7811C165.214 36.7426 165.253 36.7043 165.33 36.7043C165.407 36.6658 165.484 36.6658 165.6 36.6658C165.716 36.6658 165.87 36.6658 166.063 36.6658C166.295 36.6658 166.449 36.6658 166.604 36.6658C166.719 36.6658 166.835 36.6658 166.912 36.7043C166.989 36.7427 167.028 36.7426 167.067 36.7811C167.105 36.8195 167.144 36.8966 167.144 36.9351L169.421 43.4735ZM166.025 38.0889L164.983 41.2041H167.067L166.025 38.0889Z" fill="#BEBEBE"/>
</g>
<path id="&#208;&#144;&#208;&#160;&#208;&#162;&#208;&#144; text" fill-rule="evenodd" clip-rule="evenodd" d="M100.095 40.743L99.941 40.6275C100.751 43.5121 102.179 49.0122 104.263 57.2045C104.495 57.5506 105.035 57.7045 105.845 57.7814V59.8968H97.0081V57.7814C98.0114 57.7814 98.6676 57.6661 98.8605 57.4353L97.6642 52.7429L92.2616 54.2814L91.3354 57.4738C91.5284 57.6661 92.0686 57.7814 92.9947 57.7814V59.8968H86.4344V57.7814C87.2834 57.7429 87.8622 57.5506 88.1323 57.2045L93.4965 39.8968C93.4579 39.6276 92.9561 39.5122 91.9913 39.5122V37.3583H101.176V39.5122C100.404 39.5506 100.057 39.9738 100.095 40.743ZM47.8829 55.7815C48.1916 56.243 48.9633 56.5123 50.121 56.5507V59.5507H37.7722V56.5507C39.2 56.5507 40.049 56.3968 40.3578 56.0506L38.6985 49.4737L31.1348 51.6276L29.8227 56.1276C30.0929 56.3969 30.8647 56.5506 32.1381 56.5891V59.5892H22.9922V56.5891C24.1885 56.5121 24.9603 56.243 25.3462 55.7815L32.8327 31.5507C32.7555 31.2046 32.0609 31.0121 30.7102 31.0121V28.0122H43.5607V31.0121C43.0976 30.8198 42.4417 31.0892 42.133 31.5507C41.7856 32.1277 42.2102 33.3584 42.3645 33.9737C43.3679 38.0891 45.5289 46.5123 47.8829 55.7815ZM35.5726 37.0507L32.6784 46.6661L37.6565 45.2429L35.5726 37.0507ZM63.3189 51.3199H59.5372V57.243C59.5372 57.5891 59.8844 57.7429 60.6176 57.7814V59.9353H53.0925V57.7814C53.8257 57.7429 54.173 57.5891 54.173 57.243V40.0506C54.173 39.7044 53.8257 39.5506 53.0925 39.5122V37.3583H63.3576C65.2871 37.3583 66.9464 38.0507 68.3356 39.3969C69.6863 40.743 70.3809 42.3968 70.3809 44.3584C70.3809 46.2814 69.6863 47.9352 68.3356 49.3199C66.9078 50.6276 65.287 51.3199 63.3189 51.3199ZM60.0774 39.4737C59.7301 39.4737 59.5758 39.6661 59.5372 40.0123V49.1661H60.0774C61.428 49.1661 62.5471 48.7044 63.5119 47.7429C64.4766 46.7814 64.9398 45.666 64.9398 44.3199C64.9398 42.9737 64.4766 41.8584 63.5119 40.8968C62.5857 39.9737 61.428 39.4737 60.0774 39.4737ZM84.3119 42.1277C84.3119 41.3969 84.1963 40.8584 84.0419 40.5122H81.6106V57.166C81.6106 57.7429 82.2668 57.7046 82.6913 57.7046V59.8583H75.1276V57.7046C75.8608 57.6661 76.208 57.5121 76.208 57.166V40.5122H73.7769C73.6225 40.8199 73.5453 41.3584 73.5067 42.1277H71.3456V37.2815H86.4344V42.1277H84.3119ZM95.426 43.8199L93.342 50.666L96.8924 49.666L95.426 43.8199Z" fill="#BEBEBE"/>
<g id="flower">
<path d="M30.3118 20.9477C30.3118 20.9477 29.2392 17.622 29.0903 16.1076C28.9413 14.5933 28.0476 14.0885 27.5113 12.693C26.9751 11.2974 26.7068 8.74379 27.0941 6.45744C27.4516 4.17108 28.0177 2.21143 28.8817 1.79573C29.7456 1.38003 31.1459 1.58785 32.1886 2.35987C33.2016 3.16158 34.6019 4.23052 34.9296 6.51688C35.2573 8.80324 34.423 12.6634 34.423 12.6634C34.423 12.6634 32.9335 18.1565 32.3674 19.2551C31.8013 20.3241 31.9503 23.1449 31.9503 23.1449C31.9503 23.1449 32.3078 25.1937 33.6484 21.3336C34.9891 17.4736 37.3129 12.3664 36.3894 7.82334C35.4658 3.28032 30.8181 0.60801 30.8181 0.60801C30.8181 0.60801 28.7626 0.103201 28.2263 0.429823L28.2096 0.439971C27.6374 0.788095 25.0352 2.37111 24.7107 6.42786C24.383 10.5255 25.0683 14.5934 26.3791 17.0876C27.69 19.5818 29.1201 22.4916 29.1201 22.4916L30.6692 23.7982C30.6394 23.7685 32.9335 25.1641 30.3118 20.9477Z" fill="#BEBEBE"/>
<path fill-rule="evenodd" clip-rule="evenodd" d="M28.4051 25.1047C28.4051 25.1047 27.5113 19.0474 20.6293 14.2965C13.7473 9.54562 11.4235 10.5849 11.4235 10.5849C11.4235 10.5849 8.26543 11.6835 6.4183 11.4459C4.57118 11.1787 3.23053 15.0685 3.43908 15.7514C3.4865 15.9067 3.51697 16.1219 3.55222 16.3707C3.67199 17.2163 3.84685 18.4509 4.92869 19.0474C6.02496 19.6518 5.76992 18.6909 5.56463 17.9175C5.50771 17.7031 5.45462 17.5031 5.43522 17.3548C5.40744 17.1425 5.25013 16.936 5.08496 16.7191C4.71874 16.2383 4.31391 15.7068 5.19679 14.9497C5.58032 14.6207 5.79295 14.2812 6.00576 13.9413C6.5038 13.146 7.00282 12.3491 9.69545 11.6834C13.5685 10.7036 15.0581 13.2572 15.0581 13.2572C15.0581 13.2572 17.4116 13.9698 19.944 15.7217C20.33 15.9887 20.6731 16.2165 20.985 16.4235C22.7191 17.5745 23.4885 18.0851 25.3066 21.1555C27.4516 24.778 26.6176 25.1047 24.2342 24.9265C21.8508 24.7484 18.2161 23.1747 18.2161 23.1747C18.2161 23.1747 14.8495 21.7493 13.8664 22.3432C12.8832 22.937 12.0192 23.7982 14.5814 23.7388L14.8178 23.7303C17.1599 23.646 17.9014 23.6193 21.0165 25.4016L21.2224 25.5165C24.3928 27.287 27.3553 28.9412 28.4051 25.1047ZM44.91 13.376C44.91 13.376 43.6587 12.8712 41.5137 14.0886C39.3686 15.306 36.0319 16.6719 38.9217 13.376C41.8116 10.0801 45.0589 9.12986 45.8037 9.63464C46.5486 10.1394 47.353 11.921 47.4721 12.5742C47.5913 13.1978 47.8892 13.4651 48.9021 12.6337C49.9151 11.8023 51.1961 11.6537 51.2557 14.2073C51.3153 16.7906 49.9449 19.9975 47.4423 21.8088C44.9398 23.62 42.9138 23.9763 42.9138 23.9763C42.9138 23.9763 39.6665 24.9562 38.8919 25.0155C38.0875 25.0749 36.1808 25.4016 36.1808 25.4016L34.6615 25.6986C34.6615 25.6986 32.5163 26.144 34.2741 24.986C35.6181 24.1005 36.3177 23.9962 36.8523 23.9165C37.0168 23.892 37.1657 23.8698 37.313 23.8278C37.9386 23.62 41.037 22.4621 42.2585 21.7197C43.48 20.9774 46.2805 19.3739 46.2805 19.3739L49.0213 16.9984C49.0213 16.9984 50.8386 15.0684 49.1404 15.2466C47.472 15.395 46.7273 16.4046 46.7273 16.4046C46.7273 16.4046 45.7739 17.0876 45.1483 17.6517C44.5226 18.1862 42.6457 19.5818 42.6457 19.5818L39.4877 21.8682L38.6238 22.4323C38.6238 22.4323 37.2236 22.8481 37.3428 22.0167C37.4321 21.1853 38.1173 21.0664 39.16 21.007C40.2027 20.9476 42.6457 18.9285 43.2416 18.3941C43.313 18.315 43.4436 18.1932 43.6099 18.0382C44.6921 17.0293 47.2859 14.6114 44.91 13.376ZM28.7923 32.3795C28.7923 32.3795 26.9452 44.1082 23.2509 47.3447C19.5567 50.5812 16.7563 49.8686 16.7563 49.8686C16.7563 49.8686 12.7044 48.859 13.9855 47.2853C14.3235 46.8701 14.6075 46.5645 14.8272 46.328C15.4405 45.6682 15.5531 45.5471 14.9389 45.088C14.1047 44.4645 12.5555 43.1282 12.5555 43.1282C12.5555 43.1282 11.2149 42.0297 13.4493 40.0997C15.7135 38.1696 16.9052 37.6055 16.9052 37.6055L19.6759 36.1801C19.6759 36.1801 23.8171 34.3095 20.957 37.3678C19.9134 38.4838 19.1713 39.157 18.6278 39.6499C17.6819 40.5079 17.338 40.8199 17.0542 41.9702C16.6073 43.7815 17.65 43.93 17.65 43.93C17.65 43.93 19.3482 44.4645 20.7186 43.3362C22.089 42.2078 22.6551 41.6436 22.6551 41.6436C22.6551 41.6436 24.3235 40.0402 24.9193 38.4368C25.5152 36.8631 25.9918 38.1101 25.3364 39.4166C24.681 40.7231 22.8041 42.3859 22.8041 42.3859C22.8041 42.3859 20.8081 44.1972 20.0633 44.6129C19.3482 45.0583 17.6203 46.2163 17.3521 46.8399C17.3365 46.878 17.3188 46.9199 17.2999 46.9647C16.9949 47.687 16.3714 49.1636 18.8119 47.8495C21.4038 46.4243 22.8935 44.4349 22.8935 44.4349C22.8935 44.4349 25.7535 40.1887 26.1408 39.001C26.1778 38.8536 26.2271 38.6382 26.2876 38.3743C26.7145 36.5101 27.6963 32.2234 28.7923 32.3795Z" fill="#BEBEBE"/>
<path d="M24.5618 28.6976C24.5618 28.6976 20.3611 25.6094 11.632 24.5999C2.90282 23.5903 0.519492 30.4792 0.519492 30.4792C0.519492 30.4792 -1.89371 36.4178 6.44813 37.1601C14.8198 37.8727 23.5787 32.9139 25.0385 31.2808C26.4983 29.6477 25.545 29.7071 21.5529 31.3105C17.5607 32.9139 16.6668 32.5577 16.6668 32.5577C16.6668 32.5577 14.2537 34.3986 10.202 35.0221C6.15023 35.6754 -2.48953 33.3296 3.34976 28.163C9.18904 22.9964 20.6293 29.1133 20.6293 29.1133L23.9362 29.4695C23.9408 29.4649 24.0002 29.4618 24.0911 29.457C24.5963 29.4302 26.0765 29.3518 24.5618 28.6976Z" fill="#BEBEBE"/>
</g>
</g>
<defs>
<clipPath id="clip0_1129_7012">
<rect width="169.615" height="60" fill="white" transform="translate(0.195312 0.319824)"/>
</clipPath>
</defs>
</svg>
