<svg width="64" height="81" viewBox="0 0 64 81" fill="none" xmlns="http://www.w3.org/2000/svg">
<g id="Logotype">
<path id="Subtract" fill-rule="evenodd" clip-rule="evenodd" d="M27.5748 0H0.46875L0.491166 2.06827H2.57625C5.70013 2.07948 7.69553 3.03981 8.56244 4.94926C9.42936 6.85872 9.86282 9.37913 9.86282 12.5105V24.4885H19.236L19.2401 4.68583C20.458 4.37158 21.6932 4.12828 22.9394 3.95717C24.3033 3.75377 25.6801 3.64887 27.0591 3.64329C29.2382 3.65505 31.4087 3.91836 33.5274 4.42799C35.6674 4.91636 37.71 5.76145 39.5696 6.92785C41.3575 8.05289 42.886 9.54503 44.0536 11.3054C45.2656 13.2077 45.8805 15.4292 45.8192 17.6839C45.8769 19.8308 45.3747 21.9557 44.3619 23.8495C44.242 24.0661 44.1164 24.2792 43.9853 24.4885H54.1488C55.1617 22.5727 55.7084 20.4289 55.7234 18.2332C55.7234 14.1976 54.7686 10.984 52.8592 8.59255C50.9703 6.21128 48.5392 4.31637 45.7688 3.06597C42.8618 1.7514 39.765 0.905762 36.5933 0.560505C33.6 0.204754 30.5891 0.0176235 27.5748 0ZM58.5909 44.1062H47.6037C48.4991 45.959 48.9469 48.1095 48.9469 50.5576C48.9431 55.2808 47.2224 58.8942 43.7846 61.3978C40.3468 63.9014 35.4667 65.1532 29.1442 65.1532C27.486 65.1509 25.8301 65.0291 24.1893 64.7888C22.5116 64.5419 20.8551 64.1672 19.2345 63.6678V44.1062H9.86282V68.802H30.68C34.0299 68.7969 37.3752 68.5534 40.6906 68.0734C43.9094 67.6474 47.0393 66.7088 49.9614 65.2933C52.6621 63.9755 54.9913 62.0047 56.7379 59.5593C58.5091 57.0968 59.3947 53.9206 59.3947 50.0307C59.4105 48.057 59.1482 46.0908 58.6156 44.1902C58.6075 44.1622 58.5993 44.1342 58.5909 44.1062Z" fill="#BEBEBE"/>
<path id="Vector" d="M7.17817 35.3792C7.18097 35.1356 7.12045 34.8954 7.00255 34.6822C6.88464 34.469 6.71339 34.29 6.50555 34.1629C6.03679 33.8499 5.48279 33.6894 4.91932 33.7033H3.56851V36.887C4.10381 36.9559 4.64305 36.9896 5.18276 36.9879C5.68956 36.9999 6.18549 36.8399 6.58963 36.5338C6.77345 36.403 6.92293 36.2297 7.0254 36.0287C7.12786 35.8276 7.18028 35.6048 7.17817 35.3792ZM6.83626 31.7359C6.83682 31.5491 6.79227 31.3649 6.70639 31.199C6.62052 31.0332 6.49586 30.8904 6.34301 30.7831C6.0085 30.5335 5.59999 30.4033 5.18276 30.4131C4.64292 30.4133 4.10368 30.4488 3.56851 30.5196V33.3221H4.47092C5.06048 33.3425 5.64366 33.1947 6.15244 32.8962C6.36027 32.7822 6.53349 32.6142 6.65384 32.41C6.77419 32.2058 6.83722 31.9729 6.83626 31.7359ZM8.20388 35.3792C8.22395 35.6928 8.15778 36.0059 8.01253 36.2845C7.86728 36.5632 7.64851 36.7967 7.37995 36.9598C6.70811 37.3279 5.94805 37.5044 5.18276 37.4699L3.54609 37.3634H2.71094V30.0376H3.54609C4.0885 29.9641 4.63539 29.9285 5.18276 29.9311C5.82021 29.9047 6.45201 30.0603 7.0044 30.3795C7.22968 30.5237 7.41236 30.7255 7.53356 30.964C7.65476 31.2024 7.7101 31.4689 7.69383 31.7359C7.70524 32.1271 7.57564 32.5093 7.32869 32.8128C7.08174 33.1164 6.73389 33.321 6.34861 33.3894C7.57051 33.6472 8.18147 34.3105 8.18147 35.3792H8.20388Z" fill="#BEBEBE"/>
<path id="Vector_2" d="M13.0251 34.3194H15.637L14.3479 30.7377L13.0251 34.3194ZM14.9981 30.0371L17.6605 37.3797H16.7468L15.8164 34.8182H12.8457L11.8929 37.3797H11.3828L14.09 30.0539L14.9981 30.0371Z" fill="#BEBEBE"/>
<path id="Vector_3" d="M25.4392 36.8865V37.3629H21.2578V30.0371H22.1098V36.8865H25.4392Z" fill="#BEBEBE"/>
<path id="Vector_4" d="M29.8242 34.3194H32.4473L31.1582 30.7377L29.8242 34.3194ZM31.8084 30.0371L34.4652 37.3797H33.5515L32.6211 34.8182H29.6504L28.6976 37.3797H28.1875L30.8947 30.0539L31.8084 30.0371Z" fill="#BEBEBE"/>
<path id="Vector_5" d="M44.2168 30.0371V37.3629H43.5835L38.5389 31.2086V37.3629H38.0625V30.0371H38.6903L43.7348 36.1915V30.0371H44.2168Z" fill="#BEBEBE"/>
<path id="Vector_6" d="M54.0898 31.2143V31.7748C53.8251 31.353 53.459 31.0042 53.0249 30.7603C52.5923 30.5161 52.1036 30.3886 51.6068 30.3903C51.2709 30.3731 50.9366 30.4481 50.6402 30.6071C50.3439 30.7662 50.0966 31.0033 49.9253 31.2928C49.5639 32.0359 49.3762 32.8514 49.3762 33.6777C49.3762 34.504 49.5639 35.3195 49.9253 36.0627C50.0957 36.353 50.3427 36.5908 50.6393 36.75C50.936 36.9092 51.2707 36.9836 51.6068 36.9651C52.4296 36.969 53.2351 36.7291 53.9217 36.2757V36.7577C53.2351 37.2111 52.4296 37.451 51.6068 37.4471C51.152 37.4723 50.6974 37.3924 50.2785 37.2135C49.8595 37.0347 49.4874 36.7617 49.191 36.4158C48.6294 35.6132 48.3281 34.6573 48.3281 33.6777C48.3281 32.6981 48.6294 31.7422 49.191 30.9396C49.5043 30.587 49.893 30.3097 50.3284 30.1283C50.7637 29.9468 51.2344 29.8661 51.7054 29.8919C52.1763 29.9178 52.6353 30.0496 53.0482 30.2776C53.4611 30.5056 53.8171 30.8239 54.0898 31.2087V31.2143Z" fill="#BEBEBE"/>
<path id="Vector_7" d="M63.1258 36.8865V37.3629H57.8906V30.0371H62.8735V30.5191H58.7482V33.4562H62.0776V33.9438H58.7482V36.8865H63.1258Z" fill="#BEBEBE"/>
<path id="Vector_8" d="M4.05652 74.934V76.9182H4.67308C5.68199 76.9182 6.19205 76.5034 6.19205 75.6683C6.1956 75.4744 6.15335 75.2823 6.06874 75.1078C5.99765 74.9544 5.88253 74.8256 5.73803 74.7378C5.60167 74.6521 5.45204 74.5897 5.29524 74.5529C5.13132 74.5178 4.96402 74.5008 4.79639 74.5024C4.58433 74.4814 4.37023 74.5063 4.16862 74.5753C4.09015 74.6145 4.05652 74.7379 4.05652 74.934ZM4.05652 77.2377V79.4797C4.04206 79.5802 4.05016 79.6826 4.08022 79.7796C4.11027 79.8765 4.16153 79.9656 4.23028 80.0402C4.44541 80.1592 4.69226 80.2082 4.93651 80.1804C5.95663 80.1804 6.46669 79.7207 6.46669 78.7959C6.47795 78.5872 6.44312 78.3785 6.36465 78.1848C6.28618 77.9911 6.16601 77.817 6.01268 77.6749C5.64518 77.3862 5.18439 77.2425 4.71792 77.2713L4.05652 77.2377ZM5.17753 80.4774H2.375V80.214C2.61575 80.22 2.85545 80.18 3.08124 80.0963C3.15971 80.0402 3.19894 79.8833 3.19894 79.6311V75.0125C3.19894 74.7603 3.15971 74.6033 3.08124 74.5473C2.85545 74.4635 2.61575 74.4236 2.375 74.4296V74.1661H5.00938C5.56717 74.1232 6.12593 74.2358 6.62363 74.4912C6.80626 74.6134 6.95397 74.781 7.05224 74.9776C7.15051 75.1741 7.19596 75.3928 7.18414 75.6122C7.18789 75.779 7.15807 75.9449 7.09645 76.0999C7.03482 76.2549 6.94265 76.396 6.82541 76.5147C6.55394 76.7832 6.20494 76.9597 5.82772 77.0191C6.266 77.0661 6.68002 77.2438 7.01598 77.5292C7.17373 77.6765 7.29679 77.857 7.37627 78.0576C7.45576 78.2583 7.48969 78.4741 7.4756 78.6894C7.44197 79.8889 6.67969 80.4774 5.16632 80.4774H5.17753Z" fill="#BEBEBE"/>
<path id="Vector_9" d="M13.0581 80.4773H8.22656V80.2139C8.46912 80.2195 8.71058 80.1796 8.93841 80.0962C9.01127 80.0401 9.0449 79.8832 9.0449 79.6309V75.0124C9.0449 74.7601 9.01127 74.6032 8.93841 74.5472C8.71058 74.4637 8.46912 74.4238 8.22656 74.4295V74.166H12.8339V75.6626H12.5593C12.5468 75.3153 12.423 74.9812 12.2062 74.7097C11.898 74.5247 11.5377 74.446 11.1804 74.4855H10.2892C10.1929 74.4744 10.0954 74.4919 10.009 74.5359C9.95942 74.6184 9.93963 74.7153 9.95292 74.8106V77.019H11.2309C11.3829 77.0221 11.5349 77.0108 11.6849 76.9854C11.7833 76.9639 11.8719 76.9107 11.9371 76.834C11.9894 76.7648 12.0292 76.6871 12.0548 76.6042C12.0859 76.4826 12.1084 76.359 12.1221 76.2343H12.3967V78.1624H12.0997C12.0869 78.0357 12.0644 77.9101 12.0324 77.7869C12.0057 77.7045 11.9659 77.6269 11.9147 77.5571C11.8515 77.4769 11.7623 77.4214 11.6625 77.4001C11.5125 77.3747 11.3605 77.3634 11.2085 77.3665H9.9305V79.3787C9.92384 79.5425 9.93892 79.7065 9.97535 79.8663C9.98968 79.9105 10.013 79.9513 10.0439 79.986C10.0748 80.0208 10.1125 80.0487 10.1547 80.0681C10.4659 80.1462 10.7872 80.1765 11.1076 80.1578C11.5408 80.1927 11.9756 80.1134 12.3687 79.928C12.6655 79.663 12.8482 79.2934 12.8788 78.8967H13.1478L13.0581 80.4773Z" fill="#BEBEBE"/>
<path id="Vector_10" d="M15.1561 77.6972H16.9665L16.0641 75.0853C15.4924 76.6771 15.2009 77.5459 15.1561 77.6972ZM15.1841 80.4998H13.1719V80.2363C13.3672 80.2411 13.5605 80.1947 13.7324 80.1018C13.8626 79.9582 13.9602 79.788 14.0182 79.603C14.1677 79.2293 14.4947 78.3231 14.9991 76.8845L15.9576 74.1885H16.6358L18.5695 79.687C18.6076 79.8533 18.6956 80.0039 18.8218 80.1186C18.9988 80.195 19.1894 80.235 19.3823 80.2363V80.4998H17.0338V80.2363L17.4429 80.1971C17.5887 80.1971 17.6783 80.1523 17.712 80.0906C17.7456 80.029 17.712 79.9393 17.712 79.8047L17.1066 78.0616H15.0608C14.7581 79.0088 14.5731 79.603 14.5003 79.8216C14.4814 79.8639 14.4717 79.9097 14.4717 79.9561C14.4717 80.0024 14.4814 80.0483 14.5003 80.0906C14.5003 80.1411 14.6124 80.1803 14.7469 80.1915L15.2233 80.2363L15.1841 80.4998Z" fill="#BEBEBE"/>
<path id="Vector_11" d="M19.0469 74.4295V74.166H21.5916V74.4295C21.3506 74.4271 21.1112 74.4689 20.8853 74.5528C20.8069 74.6032 20.7732 74.7601 20.7732 75.0124V77.9662C20.7227 78.5876 20.8635 79.2096 21.1768 79.7486C21.32 79.931 21.5044 80.0769 21.7148 80.1743C21.9252 80.2717 22.1558 80.3179 22.3875 80.3092C22.6195 80.3198 22.8506 80.2744 23.0613 80.1769C23.2721 80.0793 23.4562 79.9324 23.5982 79.7486C23.9165 79.2115 24.0595 78.5885 24.0073 77.9662V75.0124C24.0073 74.7601 23.9737 74.6032 23.9008 74.5472C23.673 74.4637 23.4316 74.4238 23.189 74.4295V74.166H25.7281V74.4295C25.489 74.4275 25.2515 74.4693 25.0275 74.5528C24.949 74.6032 24.9098 74.7601 24.9098 75.0124V78.1456C24.9309 78.6087 24.8466 79.0706 24.6631 79.4964C24.3212 80.2419 23.5421 80.6174 22.3875 80.6174C21.2328 80.6174 20.4593 80.2475 20.1118 79.4964C19.9298 79.0781 19.8455 78.6238 19.8652 78.168V75.0124C19.8652 74.7601 19.8316 74.6032 19.7587 74.5472C19.5311 74.463 19.2895 74.423 19.0469 74.4295Z" fill="#BEBEBE"/>
<path id="Vector_12" d="M26.47 75.6738H26.1953V74.166H31.4585V75.6738H31.1614C31.1622 75.3237 31.048 74.983 30.8363 74.7041C30.5217 74.5202 30.1558 74.4435 29.7938 74.4855H29.2333V79.6309C29.2333 79.8832 29.2781 80.0401 29.3678 80.0962C29.6494 80.1807 29.9426 80.2205 30.2366 80.2139V80.4773H27.3275V80.2139C27.6214 80.219 27.9144 80.1793 28.1963 80.0962C28.286 80.0401 28.3252 79.8832 28.3252 79.6309V74.4855H27.7647C27.4046 74.4447 27.0408 74.5214 26.7278 74.7041C26.5377 74.9902 26.4471 75.331 26.47 75.6738Z" fill="#BEBEBE"/>
<path id="Vector_13" d="M31.6562 74.4295V74.166H34.016V74.4295L33.4835 74.4855C33.3434 74.4855 33.3041 74.5976 33.377 74.7545C33.7507 75.5841 34.2196 76.5033 34.7839 77.5122C35.4677 76.167 35.9049 75.2702 36.1179 74.7658C36.1907 74.5864 36.1515 74.4911 36.0058 74.4743L35.5125 74.4295V74.166H37.5135V74.4295C37.3113 74.4209 37.1099 74.4593 36.925 74.5416C36.7684 74.6801 36.6375 74.8452 36.5383 75.0292C36.1907 75.5897 35.7087 76.4753 35.1034 77.6972C35.019 77.8716 34.9786 78.0641 34.9857 78.2577V79.6534C34.9857 79.9056 35.0305 80.0625 35.1146 80.1186C35.3849 80.2019 35.6669 80.2417 35.9497 80.2363V80.4997H33.1136V80.2363C33.3982 80.2409 33.6819 80.2012 33.9543 80.1186C34.0384 80.0625 34.0832 79.9056 34.0832 79.6534V78.2969C34.0902 78.1027 34.0478 77.9098 33.9599 77.7364C33.5863 76.9629 33.0874 76.0101 32.4634 74.8779C32.402 74.7315 32.2987 74.6067 32.1663 74.5191C32.0037 74.4565 31.8305 74.426 31.6562 74.4295Z" fill="#BEBEBE"/>
<path id="Vector_14" d="M41.0321 75.4946C41.0652 75.981 41.2768 76.4381 41.6262 76.7781C41.8634 76.6484 42.0646 76.4616 42.2114 76.2345C42.3582 76.0074 42.446 75.7473 42.467 75.4778C42.478 75.2527 42.415 75.0303 42.2876 74.8444C42.2333 74.7615 42.158 74.6945 42.0694 74.6502C41.9808 74.6059 41.882 74.5859 41.7831 74.5922C41.683 74.5931 41.5844 74.6162 41.4942 74.6599C41.4041 74.7035 41.3248 74.7665 41.2619 74.8444C41.1048 75.0237 41.0226 75.2564 41.0321 75.4946ZM40.4716 78.6895C40.4635 78.8807 40.4941 79.0716 40.5615 79.2507C40.629 79.4298 40.7318 79.5935 40.8639 79.732C40.9909 79.865 41.1442 79.9701 41.314 80.0406C41.4839 80.111 41.6666 80.1453 41.8504 80.1412C42.3629 80.1283 42.8531 79.929 43.2293 79.5807C42.4689 78.9047 41.7589 78.1741 41.1049 77.3947C40.9131 77.5517 40.7583 77.7492 40.6517 77.9731C40.5451 78.1969 40.4893 78.4415 40.4884 78.6895H40.4716ZM39.586 78.8744C39.5848 78.6728 39.6228 78.4729 39.6981 78.2859C39.7744 78.1014 39.8891 77.9352 40.0344 77.7983C40.164 77.6747 40.3006 77.5587 40.4435 77.4508C40.5612 77.3667 40.7182 77.2602 40.92 77.1369C40.5621 76.7495 40.3483 76.2507 40.3146 75.7244C40.3106 75.5332 40.3464 75.3433 40.4198 75.1667C40.4931 74.9902 40.6024 74.8308 40.7406 74.6987C40.8795 74.5585 41.0457 74.4484 41.2289 74.3751C41.4121 74.3018 41.6083 74.267 41.8056 74.2727C42.1558 74.2615 42.4976 74.3814 42.764 74.609C42.8949 74.7236 42.9981 74.8664 43.0661 75.0265C43.134 75.1866 43.1649 75.3601 43.1564 75.5338C43.1576 75.7008 43.1215 75.866 43.0507 76.0173C42.98 76.1686 42.8762 76.3022 42.7472 76.4082C42.6189 76.5137 42.4841 76.611 42.3437 76.6997C42.2147 76.7781 42.041 76.879 41.8224 76.9911C42.4107 77.7083 43.0494 78.3827 43.7337 79.009C43.9833 78.6813 44.162 78.3053 44.2585 77.9048C44.355 77.5044 44.3671 77.0882 44.2942 76.6829C44.5026 76.5563 44.7467 76.5012 44.9892 76.5259C45.0697 76.6675 45.1206 76.824 45.1389 76.9858C45.1572 77.1477 45.1425 77.3116 45.0957 77.4676C44.83 78.1197 44.4504 78.7195 43.9747 79.2388C44.2211 79.4745 44.4812 79.6953 44.7538 79.9002C44.9711 80.0792 45.2176 80.2195 45.4825 80.3149L45.4376 80.5391H45.2415C44.6971 80.5259 44.1695 80.348 43.7281 80.0291L43.4703 79.8273C42.9597 80.3168 42.283 80.5951 41.5758 80.6064C41.0583 80.6266 40.5503 80.4639 40.1409 80.1468C39.9567 79.9889 39.8121 79.79 39.7186 79.5661C39.6252 79.3423 39.5855 79.0996 39.6028 78.8576L39.586 78.8744Z" fill="#BEBEBE"/>
<path id="Vector_15" d="M48.2303 80.0677L48.1406 78.6048H48.4321C48.515 79.0637 48.7203 79.4917 49.0262 79.8435C49.1615 79.9884 49.3257 80.1032 49.5082 80.1805C49.6907 80.2577 49.8874 80.2957 50.0856 80.2919C50.4369 80.3106 50.7814 80.1897 51.044 79.9556C51.164 79.8357 51.2574 79.6919 51.3183 79.5336C51.3791 79.3752 51.406 79.2058 51.3972 79.0364C51.3944 78.7855 51.3076 78.5427 51.1505 78.347C51.0136 78.1657 50.8422 78.0133 50.6461 77.8986C50.4805 77.8023 50.3081 77.718 50.1304 77.6464L49.9679 77.5847C49.499 77.4409 49.0655 77.2003 48.6955 76.8785C48.5462 76.7393 48.4284 76.5697 48.3501 76.3812C48.2718 76.1926 48.2347 75.9895 48.2415 75.7855C48.2271 75.5348 48.2747 75.2844 48.3804 75.0566C48.486 74.8287 48.6462 74.6305 48.8469 74.4795C49.2793 74.1661 49.8041 74.0063 50.3378 74.0255C50.8859 73.9828 51.4325 74.1249 51.8904 74.4291V75.7182H51.6046C51.4588 74.799 51.0048 74.345 50.2369 74.345C50.0795 74.3349 49.9218 74.3582 49.774 74.4132C49.6263 74.4683 49.4918 74.5539 49.3793 74.6645C49.2746 74.777 49.1933 74.9094 49.1404 75.0537C49.0874 75.1981 49.0639 75.3516 49.0711 75.5052C49.0735 75.6341 49.1021 75.7612 49.1551 75.8788C49.2081 75.9963 49.2844 76.1019 49.3793 76.1891C49.6139 76.4043 49.8907 76.5684 50.1921 76.6711L50.4835 76.7832C50.9792 76.9447 51.4355 77.2081 51.8231 77.5567C51.9793 77.7146 52.1008 77.9033 52.18 78.1108C52.2591 78.3183 52.2941 78.54 52.2828 78.7618C52.2867 79.0075 52.2389 79.2513 52.1423 79.4773C52.0457 79.7033 51.9026 79.9064 51.7223 80.0734C51.2568 80.4732 50.653 80.6744 50.0407 80.6339C49.6977 80.6345 49.3562 80.5873 49.0262 80.4937C48.7313 80.4159 48.4587 80.27 48.2303 80.0677Z" fill="#BEBEBE"/>
<path id="Vector_16" d="M54.6504 74.8216V77.2094C54.6504 77.3719 54.6953 77.4728 54.7738 77.512C54.957 77.5571 55.1459 77.5741 55.3343 77.5625C55.7325 77.577 56.122 77.4432 56.4272 77.187C56.5822 77.0361 56.7017 76.8528 56.7773 76.6503C56.8529 76.4477 56.8827 76.2309 56.8644 76.0155C56.875 75.8116 56.8454 75.6077 56.7771 75.4154C56.7088 75.223 56.6032 75.046 56.4665 74.8945C56.3156 74.7571 56.1385 74.6516 55.9459 74.5842C55.7533 74.5168 55.5491 74.4889 55.3455 74.5021C55.156 74.4855 54.9651 74.5084 54.785 74.5694C54.7411 74.5945 54.7052 74.6315 54.6814 74.6762C54.6576 74.7208 54.6469 74.7712 54.6504 74.8216ZM55.6201 80.4771H52.9297V80.2137C53.1705 80.2204 53.4103 80.1804 53.6359 80.096C53.7144 80.0399 53.748 79.883 53.748 79.6308V75.0122C53.748 74.76 53.7144 74.603 53.6359 74.547C53.4103 74.4625 53.1705 74.4226 52.9297 74.4293V74.1658H55.4744C56.058 74.1262 56.641 74.2525 57.1559 74.5302C57.392 74.6798 57.5829 74.8908 57.7083 75.1406C57.8337 75.3904 57.8888 75.6695 57.8677 75.9482C57.8809 76.17 57.849 76.3921 57.7738 76.6012C57.6987 76.8103 57.5819 77.0019 57.4305 77.1645C57.138 77.4592 56.7693 77.6668 56.3656 77.7643C55.981 77.8491 55.5879 77.8886 55.1941 77.882H54.6729V79.6308C54.6729 79.883 54.7177 80.0399 54.8074 80.096C55.0776 80.18 55.3596 80.2198 55.6425 80.2137L55.6201 80.4771Z" fill="#BEBEBE"/>
<path id="Vector_17" d="M59.2989 77.6972H61.1149L60.2125 75.0853H60.1845C59.6408 76.6771 59.3493 77.5459 59.2989 77.6972ZM59.3269 80.4998H57.3203V80.2363C57.5157 80.2411 57.7089 80.1947 57.8808 80.1018C58.015 79.961 58.113 79.7899 58.1667 79.603C58.3161 79.2293 58.645 78.3231 59.1532 76.8845L60.1116 74.1885H60.7842L62.718 79.687C62.7583 79.8524 62.8459 80.0024 62.9702 80.1186C63.1475 80.1943 63.338 80.2343 63.5307 80.2363V80.4998H61.199V80.2363L61.6082 80.1971C61.7539 80.1971 61.8436 80.1523 61.8772 80.0906C61.8972 80.0456 61.9074 79.9969 61.9074 79.9477C61.9074 79.8984 61.8972 79.8498 61.8772 79.8047L61.2719 78.0616H59.1868C58.8841 79.0088 58.6936 79.603 58.6263 79.8216C58.5936 79.9083 58.5936 80.0039 58.6263 80.0906C58.6577 80.1242 58.696 80.1506 58.7386 80.168C58.7811 80.1854 58.827 80.1934 58.8729 80.1915L59.3493 80.2363L59.3269 80.4998Z" fill="#BEBEBE"/>
</g>
</svg>
