<svg width="76" height="81" viewBox="0 0 76 81" fill="none" xmlns="http://www.w3.org/2000/svg">
<path d="M22.6023 0.282446C22.5179 0.349979 22.4279 0.490675 22.3997 0.586349C22.3434 0.788952 22.214 0.220539 24.5552 10.1143C25.2193 12.917 25.7539 15.2131 25.7427 15.2244C25.7314 15.2413 22.0283 13.733 21.9551 13.688C21.9495 13.6823 21.3361 11.1104 20.5932 7.97008C19.8503 4.82974 19.22 2.20717 19.1918 2.13963C19.0624 1.85261 18.5615 1.73443 18.2689 1.92578C18.1169 2.02145 18.0044 2.23531 18.0044 2.42665C18.0044 2.49981 18.5615 4.90853 19.2425 7.78436C19.9178 10.6546 20.4637 13.0183 20.4525 13.0295C20.4412 13.0464 17.9762 12.039 14.9822 10.8009C11.9882 9.56276 9.47819 8.53286 9.40503 8.51035C9.23057 8.4597 8.90978 8.57789 8.77471 8.74672C8.60025 8.96621 8.62276 9.33765 8.81411 9.54588C8.93792 9.67532 10.3393 10.2719 15.2749 12.3091C21.7356 14.9767 34.6909 20.3288 36.7338 21.1786C37.3585 21.4375 37.9269 21.6514 37.9888 21.6514C38.0564 21.6514 39.4071 21.1167 40.9885 20.4583C42.5699 19.8054 44.005 19.2145 44.1738 19.147C45.215 18.7249 66.7584 9.80476 66.9497 9.71471C67.3774 9.50648 67.4731 9.02811 67.1523 8.69607C66.8372 8.36966 67.1298 8.26836 61.1137 10.7559C58.069 12.0165 55.5646 13.0351 55.5477 13.0295C55.5252 13.0183 56.0599 10.694 56.7352 7.86315C57.4049 5.03234 57.9621 2.60674 57.9677 2.4773C57.9789 2.2128 57.8664 1.99894 57.6694 1.89201C57.3993 1.74568 56.9097 1.8695 56.8084 2.11149C56.7858 2.16215 56.1555 4.79035 55.407 7.94194L54.0451 13.6767L52.1654 14.459C51.1355 14.8867 50.2744 15.2244 50.2632 15.2075C50.2463 15.1962 51.0004 11.949 51.9346 7.99259C53.1671 2.79809 53.6286 0.755184 53.6005 0.625744C53.4936 0.0404472 52.5762 -0.00457573 52.3961 0.563837C52.368 0.659512 51.5407 4.13752 50.5615 8.28524C49.5822 12.433 48.7605 15.8434 48.7437 15.8603C48.6592 15.9335 45.0687 17.3911 45.0405 17.3573C45.0237 17.3404 45.7722 14.1101 46.7007 10.1706C47.635 6.2367 48.3947 2.92753 48.3947 2.81498C48.3947 2.66302 48.3497 2.57298 48.2034 2.42665C47.9501 2.1734 47.635 2.16215 47.3761 2.39289C47.1847 2.56172 47.2635 2.2747 46.1942 6.77698L45.9635 7.75059H37.9945H30.0198L29.4627 5.37002C29.1531 4.06436 28.8661 2.87125 28.8267 2.72493C28.7029 2.29721 28.2977 2.11712 27.9094 2.31973C27.7349 2.40977 27.5717 2.66302 27.5717 2.83749C27.5717 2.89376 28.3427 6.19168 29.2882 10.1706C30.2281 14.1438 30.9934 17.4023 30.9878 17.408C30.9428 17.4417 27.2622 15.8659 27.2284 15.7984C27.2003 15.7534 26.3673 12.281 25.3769 8.08826C23.621 0.625744 23.5759 0.456909 23.4071 0.304956C23.1876 0.107983 22.8331 0.0967255 22.6023 0.282446ZM45.2938 10.6039C45.0799 11.4987 44.8942 12.2585 44.8773 12.2923C44.8604 12.3485 43.431 12.3654 37.9888 12.3654C31.4999 12.3654 31.1229 12.3598 31.0947 12.2641C31.0553 12.1347 30.3294 9.05625 30.3294 9.01686C30.3294 8.99998 33.7848 8.98872 38.0001 8.98872H45.6765L45.2938 10.6039ZM44.5678 13.6317C44.5678 13.6655 43.9037 16.4963 43.8306 16.7664L43.7743 16.9803H37.9888H32.2034L31.8489 15.472C31.6519 14.6447 31.4774 13.8849 31.4493 13.7836L31.4099 13.6036H37.9888C41.6076 13.6036 44.5678 13.6148 44.5678 13.6317ZM42.9864 18.2409C42.902 18.3253 38.0001 20.3007 37.9269 20.2838C37.865 20.2669 34.2745 18.7812 33.0589 18.2747C32.997 18.2465 35.2087 18.224 37.9776 18.224C40.7465 18.2184 42.9976 18.2296 42.9864 18.2409Z" fill="#BEBEBE"/>
<path d="M8.94327 13.5137C8.76881 13.6094 8.66188 13.812 8.65625 14.0428C8.65625 14.3523 8.78569 14.5268 9.14587 14.69C10.5022 15.2865 37.8648 26.5591 37.9773 26.5591C38.118 26.5647 66.7806 14.7575 67.062 14.5774C67.2702 14.448 67.3772 14.1328 67.304 13.8795C67.2083 13.57 66.9945 13.4181 66.6793 13.4462C66.5049 13.4631 62.0026 15.3034 52.2439 19.3442C44.4437 22.5689 38.0223 25.214 37.9773 25.2084C37.9323 25.2028 31.4884 22.5577 23.6657 19.3217C14.6049 15.5735 9.37661 13.4349 9.25843 13.4349C9.15713 13.4406 9.01643 13.4743 8.94327 13.5137Z" fill="#BEBEBE"/>
<path d="M8.8497 18.4662C8.69212 18.6238 8.65835 18.6969 8.65835 18.8996C8.65835 19.2654 8.8103 19.4117 9.47439 19.6818C9.77829 19.8056 10.0428 19.9182 10.0484 19.9294C10.0597 19.9407 9.96401 20.1827 9.8402 20.4753C9.2943 21.7135 8.85532 23.3849 8.71463 24.7413C8.49514 26.953 8.82718 29.4124 9.62634 31.4102C10.8532 34.4999 13.0256 36.9762 15.9577 38.6477L16.4811 38.9403L16.3404 39.1767C16.2672 39.3005 15.5862 40.4711 14.8265 41.7655C13.6052 43.8478 13.442 44.1573 13.442 44.3655C13.442 44.5569 13.4758 44.6413 13.6165 44.7764C13.7572 44.9227 13.8303 44.9508 14.0498 44.9508C14.213 44.9508 14.3594 44.9114 14.4325 44.8495C14.5001 44.7989 15.2429 43.5776 16.0871 42.1369C16.9313 40.6962 17.6291 39.5087 17.6404 39.4975C17.6516 39.4806 17.9893 39.5763 18.3833 39.7057C19.143 39.9589 20.0998 40.1897 20.6344 40.2572C20.8089 40.2741 20.9833 40.3079 21.0227 40.3304C21.0621 40.3529 20.2798 41.7486 18.8391 44.2361C17.6066 46.3634 16.5767 48.17 16.5598 48.2431C16.4304 48.7496 17.0551 49.1886 17.5109 48.9016C17.6235 48.8341 18.3382 47.6466 20.0829 44.6413L22.4916 40.4767L23.5271 40.4148C24.5739 40.3473 25.6319 40.1953 26.3861 39.9983C26.6168 39.9421 26.8081 39.897 26.8138 39.9027C26.825 39.9083 25.1198 42.801 23.0319 46.3297C18.8279 53.4376 19.0586 52.9987 19.43 53.3701C19.6439 53.584 19.914 53.6233 20.1842 53.4827C20.2967 53.4207 21.366 51.6592 24.5401 46.2903L28.7441 39.1823L29.2675 38.9178C29.5545 38.7715 29.8866 38.597 30.0048 38.5238C30.1342 38.4507 30.2299 38.4225 30.2636 38.4563C30.2918 38.4844 31.9351 40.9438 33.9161 43.9153C35.8971 46.8924 37.5798 49.3687 37.653 49.4193C37.8218 49.5375 38.1989 49.5319 38.3565 49.4081C38.424 49.3574 40.1011 46.8699 42.0877 43.8815C44.0744 40.8932 45.7177 38.4451 45.7458 38.4338C45.774 38.4225 45.9935 38.5295 46.2355 38.6645C46.4775 38.8052 46.8376 38.991 47.0402 39.081L47.4061 39.2498L51.5707 46.324C54.711 51.6592 55.7747 53.4207 55.8872 53.4827C56.1574 53.6233 56.4275 53.584 56.6413 53.3701C57.0184 52.993 57.2266 53.4039 53.2534 46.6673C51.2836 43.3244 49.5897 40.4429 49.4827 40.2572C49.297 39.9421 49.2914 39.9308 49.4152 39.9589C50.749 40.2628 51.4975 40.3698 52.8313 40.4373L53.5798 40.4767L56.011 44.6582C57.6938 47.5622 58.4817 48.8678 58.5773 48.9241C59.0219 49.1661 59.596 48.7834 59.5172 48.2938C59.5003 48.1925 58.4817 46.3803 57.2548 44.2642C56.0279 42.1538 55.0205 40.3979 55.0149 40.3698C55.0093 40.3416 55.3076 40.2628 55.679 40.1953C56.4725 40.049 57.2998 39.8295 57.9245 39.5988C58.1721 39.5087 58.3916 39.4524 58.4141 39.4749C58.4366 39.5031 59.1232 40.6568 59.9449 42.0525C60.7609 43.4426 61.4644 44.6413 61.5038 44.7088C61.6051 44.8721 61.7965 44.9508 62.0722 44.9508C62.4043 44.9508 62.6294 44.7145 62.6294 44.3655C62.6294 44.1348 62.4943 43.8816 61.1099 41.5235C60.2769 40.0996 59.5903 38.9234 59.5903 38.9065C59.5903 38.8953 59.7761 38.7827 60.0012 38.6589C63.7437 36.5991 66.4113 32.8453 67.126 28.6245C67.4918 26.4915 67.368 24.3079 66.7715 22.2369C66.5689 21.5278 66.2537 20.6892 66.023 20.2277C65.9498 20.0758 65.8935 19.9463 65.9048 19.9351C65.916 19.9294 66.1805 19.8113 66.5013 19.6818C67.2611 19.3667 67.4468 19.1359 67.3005 18.6969C67.2217 18.4662 66.9628 18.2749 66.7208 18.2749C66.5576 18.2749 66.4507 18.3143 60.9129 20.6104C58.8418 21.4658 56.7877 22.3157 56.3543 22.4957C54.9643 23.0642 43.8211 27.6734 43.354 27.8703C43.1064 27.9716 41.8007 28.5175 40.45 29.0747L37.9907 30.0877L35.2724 28.9565C33.7754 28.3374 32.436 27.7859 32.2953 27.7296C31.9464 27.5889 11.9169 19.3104 11.5286 19.1472C10.2398 18.5956 9.40123 18.2749 9.23239 18.2749C9.09169 18.2749 8.99039 18.3255 8.8497 18.4662ZM12.6823 21.0044C13.3351 21.2745 13.9823 21.5446 14.1286 21.6065L14.3875 21.7191L14.1117 22.2875C12.7273 25.1971 12.8849 28.7145 14.5282 31.5115C16.0027 34.0159 18.5014 35.7381 21.4054 36.2614C22.1033 36.3853 23.8254 36.4021 24.5007 36.2952C26.78 35.9238 28.6878 34.922 30.2411 33.2899C31.1641 32.3276 31.952 31.0444 32.3572 29.8682C32.4529 29.5756 32.5542 29.3167 32.5767 29.2886C32.6048 29.2548 34.901 30.1609 35.1092 30.2903C35.2274 30.3635 34.5858 31.8492 34.023 32.806C33.5447 33.622 32.9031 34.4437 32.1602 35.209C31.0009 36.3909 29.9766 37.1394 28.5528 37.8316C26.7294 38.7264 24.8891 39.1542 22.8855 39.1542C19.5032 39.1542 16.3516 37.8879 13.926 35.5523C11.7818 33.4869 10.4593 30.915 10.0315 27.9773C9.89648 27.0712 9.89648 25.3434 10.0259 24.4599C10.206 23.2386 10.5437 22.0511 11.0333 20.9368C11.2415 20.4641 11.2697 20.4247 11.3822 20.4697C11.4441 20.4922 12.0351 20.7342 12.6823 21.0044ZM65.01 21.0888C66.8897 25.5179 66.2312 30.4704 63.2484 34.2636C62.7701 34.8714 61.7683 35.8788 61.1774 36.3402C59.5678 37.6009 57.6037 38.5182 55.7071 38.8953C54.6435 39.1091 54.1595 39.1485 52.8651 39.1316C51.6438 39.1091 50.9403 39.0247 49.9161 38.7602C46.3874 37.8598 43.3596 35.4792 41.66 32.2657C41.328 31.6354 40.8496 30.521 40.8496 30.3747C40.8496 30.3128 41.2436 30.1215 42.1215 29.7613C42.8194 29.4743 43.399 29.2492 43.4047 29.2604C43.4103 29.266 43.5003 29.5193 43.6016 29.8119C44.1138 31.3033 45.1605 32.8566 46.348 33.8978C49.3645 36.5316 53.5798 37.1338 57.1591 35.4342C60.2375 33.9765 62.3311 31.0669 62.7476 27.6565C62.8432 26.8686 62.787 25.3828 62.635 24.6118C62.4774 23.8295 62.1904 22.9629 61.864 22.2763C61.667 21.8542 61.6276 21.7247 61.6839 21.691C61.8752 21.5671 64.6892 20.4303 64.7229 20.4641C64.7398 20.481 64.8693 20.7624 65.01 21.0888ZM17.3252 22.9235C18.2088 23.2836 18.9348 23.5875 18.9404 23.5932C18.946 23.5932 18.856 23.7901 18.7322 24.0209C18.372 24.7075 18.2201 25.3265 18.1863 26.2045C18.1413 27.3132 18.3045 28.0504 18.7885 28.9509C19.4919 30.2565 20.6513 31.1683 22.1089 31.5622C22.5085 31.6691 22.728 31.6916 23.4314 31.6916C24.2981 31.6916 24.5964 31.6466 25.3055 31.3821C26.78 30.8418 28.0069 29.5362 28.4684 28.0167C28.5697 27.7015 28.6147 27.6115 28.6878 27.634C28.8285 27.6734 31.3048 28.6976 31.3498 28.737C31.4117 28.7933 31.0515 29.7725 30.7476 30.3747C30.3424 31.1795 29.8528 31.8548 29.2 32.5189C28.2883 33.4419 27.416 34.0328 26.2848 34.4831C25.1873 34.922 24.2531 35.1021 23.0319 35.1021C20.6963 35.1021 18.6815 34.2692 17.0101 32.5977C16.0702 31.6635 15.5187 30.8418 15.0572 29.6994C14.2074 27.5833 14.2524 25.1352 15.1698 23.0473C15.423 22.462 15.5806 22.2031 15.6594 22.2312C15.6932 22.2481 16.4417 22.5576 17.3252 22.9235ZM60.7047 22.8165C61.8471 25.2478 61.8246 27.9491 60.6259 30.3466C59.8211 31.9618 58.4817 33.3181 56.8946 34.1398C55.5833 34.8095 54.6829 35.0402 53.2027 35.0852C52.3417 35.1077 52.0884 35.0965 51.5144 35.0008C50.6196 34.8432 49.9217 34.6125 49.0381 34.1735C47.4229 33.3744 46.0891 32.0462 45.2562 30.4197C44.9242 29.7669 44.5809 28.8158 44.654 28.7427C44.7553 28.6413 47.3385 27.6115 47.3723 27.6565C47.3948 27.679 47.4567 27.8535 47.513 28.0392C47.997 29.6318 49.3645 30.9938 50.9854 31.489C53.5123 32.2657 56.2193 31.0613 57.3392 28.6695C58.0258 27.2119 57.9864 25.4279 57.2435 23.9984C57.131 23.7901 57.0522 23.6101 57.0634 23.5988C57.0916 23.5707 60.3388 22.22 60.3839 22.2144C60.4007 22.2144 60.5471 22.4845 60.7047 22.8165ZM23.8535 25.6192C25.7895 26.4184 27.3766 27.0768 27.3878 27.0881C27.4385 27.1218 27.1908 27.8647 27.0051 28.2418C26.3129 29.6093 24.9735 30.4366 23.4314 30.4366C21.6024 30.4366 20.0379 29.2379 19.5426 27.4482C19.385 26.8911 19.4019 25.9118 19.5707 25.3659C19.7846 24.6793 20.0998 24.1053 20.2461 24.1447C20.2967 24.156 21.9176 24.82 23.8535 25.6192ZM56.1236 24.6456C56.4444 25.2984 56.5513 25.7543 56.5513 26.4409C56.5513 28.6413 54.7785 30.431 52.5837 30.4366C51.4637 30.4423 50.6196 30.1102 49.8148 29.3448C49.3083 28.8665 49.0381 28.4613 48.8018 27.8422C48.4922 27.0262 48.0927 27.2907 52.1785 25.6023C54.1313 24.7919 55.769 24.1278 55.8028 24.1278C55.8422 24.1278 55.9885 24.3642 56.1236 24.6456ZM37.1803 31.1345C37.5855 31.3033 37.9457 31.444 37.9794 31.444C38.0132 31.444 38.3846 31.3033 38.7955 31.1345C39.2119 30.9656 39.5721 30.825 39.6002 30.825C39.6227 30.825 39.7128 31.0219 39.8028 31.2583C40.028 31.883 40.6189 33.0761 40.9847 33.6614C41.1591 33.9315 41.283 34.1848 41.2604 34.2242C41.0522 34.6012 38.0076 39.323 37.9794 39.323C37.9457 39.323 34.8391 34.6744 34.6365 34.3311C34.6196 34.2973 34.7434 34.0497 34.9122 33.7852C35.0867 33.5207 35.3737 33.0142 35.5538 32.6653C35.8352 32.1137 35.9703 31.8042 36.2967 30.9488C36.3248 30.8812 36.3642 30.825 36.3924 30.825C36.4205 30.825 36.7751 30.9656 37.1803 31.1345ZM44.1025 37.2238C44.4008 37.4602 44.654 37.6628 44.6653 37.6684C44.6934 37.6797 38.0357 47.6803 37.9907 47.6916C37.9682 47.6972 36.4543 45.4517 34.6196 42.6997L31.2879 37.6966L31.8338 37.2632C32.1321 37.0268 32.7005 36.5034 33.0888 36.1039L33.7979 35.3779L35.6551 38.1805C36.6738 39.7226 37.5517 41.017 37.6024 41.0564C37.7543 41.1858 38.1145 41.2027 38.2946 41.0958C38.4071 41.0339 39.0318 40.1053 40.2812 38.1411L42.1103 35.2822L42.8362 36.0363C43.2302 36.4472 43.8042 36.9818 44.1025 37.2238Z" fill="#BEBEBE"/>
<path d="M0.609425 68.9409C0.609425 68.1364 0.695153 67.477 0.86661 66.9626C1.03807 66.4482 1.30844 66.0657 1.67773 65.8151C2.06021 65.5514 2.46907 65.3799 2.90431 65.3008C3.35273 65.2085 3.92645 65.1623 4.62547 65.1623H5.43659V63.7972C5.43659 63.573 5.48934 63.4279 5.59486 63.362C5.70037 63.2961 5.91799 63.2631 6.24771 63.2631C6.57743 63.2631 6.79505 63.3026 6.90056 63.3818C7.00608 63.4477 7.05883 63.5862 7.05883 63.7972V65.1623H7.86995C8.56897 65.1623 9.13609 65.2085 9.57133 65.3008C10.0066 65.3799 10.4088 65.5514 10.7781 65.8151C11.1606 66.0657 11.4376 66.4482 11.609 66.9626C11.7805 67.4638 11.8662 68.1232 11.8662 68.9409C11.8662 70.4972 11.5563 71.5919 10.9364 72.225C10.3297 72.8581 9.30755 73.1746 7.86995 73.1746H7.05883V75.0145C7.05883 75.2255 7.00608 75.3706 6.90056 75.4497C6.79505 75.5156 6.57743 75.5486 6.24771 75.5486C5.91799 75.5486 5.70037 75.5156 5.59486 75.4497C5.48934 75.3837 5.43659 75.2387 5.43659 75.0145V73.1746H4.62547C3.18787 73.1746 2.15913 72.8581 1.53925 72.225C0.919366 71.5919 0.609425 70.4972 0.609425 68.9409ZM2.27124 68.9409C2.27124 70.1411 2.42291 70.9193 2.72625 71.2754C3.04279 71.6183 3.67586 71.7898 4.62547 71.7898H5.43659V66.5471H4.62547C3.67586 66.5471 3.04279 66.6922 2.72625 66.9824C2.42291 67.2725 2.27124 67.9254 2.27124 68.9409ZM7.86995 66.5471H7.05883V71.7898H7.86995C8.80637 71.7898 9.43285 71.6117 9.74938 71.2556C10.0659 70.8995 10.2242 70.1279 10.2242 68.9409C10.2242 67.9386 10.0659 67.2923 9.74938 67.0022C9.43285 66.6988 8.80637 66.5471 7.86995 66.5471ZM23.6406 75.3903C23.5351 75.4563 23.3175 75.4893 22.9878 75.4893C22.658 75.4893 22.4404 75.4563 22.3349 75.3903C22.2294 75.3244 22.1766 75.1793 22.1766 74.9551V65.8151H21.9788L17.7649 74.9749C17.6594 75.1991 17.5407 75.3442 17.4088 75.4101C17.2769 75.4629 17.0197 75.4893 16.6373 75.4893C16.1493 75.4893 15.8393 75.4563 15.7074 75.3903C15.5756 75.3244 15.5096 75.1793 15.5096 74.9551V63.8368C15.5096 63.6258 15.5624 63.4873 15.6679 63.4214C15.7734 63.3554 15.991 63.3224 16.3207 63.3224C16.6505 63.3224 16.8681 63.3554 16.9736 63.4214C17.0791 63.4873 17.1319 63.6258 17.1319 63.8368V72.9768H17.3297L21.504 63.8368C21.6095 63.6126 21.7282 63.4741 21.8601 63.4214C21.992 63.3554 22.2558 63.3224 22.6514 63.3224C23.1394 63.3224 23.4494 63.3554 23.5813 63.4214C23.7263 63.4873 23.7989 63.6258 23.7989 63.8368V74.9551C23.7989 75.1661 23.7461 75.3112 23.6406 75.3903ZM35.9651 75.4893C35.6222 75.4893 35.398 75.4563 35.2924 75.3903C35.1869 75.3112 35.1342 75.1661 35.1342 74.9551V64.8062H31.5732L30.6038 73.9461C30.5378 74.5397 30.3862 74.9749 30.1488 75.2519C29.9245 75.5288 29.5157 75.6673 28.9222 75.6673C28.5397 75.6673 28.1836 75.6277 27.8539 75.5486C27.6692 75.509 27.5373 75.4365 27.4582 75.331C27.3791 75.2255 27.3395 75.0408 27.3395 74.7771C27.3395 74.5265 27.3593 74.3682 27.3989 74.3023C27.4516 74.2231 27.5439 74.1835 27.6758 74.1835C27.7418 74.1835 27.8539 74.1967 28.0121 74.2231C28.1836 74.2363 28.3287 74.2429 28.4474 74.2429C28.6848 74.2429 28.843 74.1901 28.9222 74.0846C29.0145 73.9659 29.0804 73.7022 29.12 73.2933L30.0894 63.7972C30.1158 63.5994 30.1619 63.4741 30.2279 63.4214C30.307 63.3554 30.4653 63.3224 30.7027 63.3224H36.1629C36.4135 63.3224 36.5784 63.3554 36.6575 63.4214C36.7366 63.4873 36.7762 63.6192 36.7762 63.817V74.9551C36.7762 75.1661 36.7235 75.3112 36.6179 75.3903C36.5124 75.4563 36.2948 75.4893 35.9651 75.4893ZM48.9364 75.4893C48.5935 75.4893 48.3693 75.4563 48.2637 75.3903C48.1582 75.3112 48.1055 75.1661 48.1055 74.9551V64.8062H44.5445L43.5751 73.9461C43.5091 74.5397 43.3575 74.9749 43.12 75.2519C42.8958 75.5288 42.487 75.6673 41.8935 75.6673C41.511 75.6673 41.1549 75.6277 40.8252 75.5486C40.6405 75.509 40.5086 75.4365 40.4295 75.331C40.3504 75.2255 40.3108 75.0408 40.3108 74.7771C40.3108 74.5265 40.3306 74.3682 40.3701 74.3023C40.4229 74.2231 40.5152 74.1835 40.6471 74.1835C40.7131 74.1835 40.8252 74.1967 40.9834 74.2231C41.1549 74.2363 41.3 74.2429 41.4187 74.2429C41.6561 74.2429 41.8143 74.1901 41.8935 74.0846C41.9858 73.9659 42.0517 73.7022 42.0913 73.2933L43.0607 63.7972C43.0871 63.5994 43.1332 63.4741 43.1992 63.4214C43.2783 63.3554 43.4366 63.3224 43.674 63.3224H49.1342C49.3848 63.3224 49.5497 63.3554 49.6288 63.4214C49.7079 63.4873 49.7475 63.6192 49.7475 63.817V74.9551C49.7475 75.1661 49.6948 75.3112 49.5892 75.3903C49.4837 75.4563 49.2661 75.4893 48.9364 75.4893ZM62.3034 75.3903C62.1978 75.4563 61.9802 75.4893 61.6505 75.4893C61.3208 75.4893 61.1032 75.4563 60.9976 75.3903C60.8921 75.3244 60.8394 75.1793 60.8394 74.9551V65.8151H60.6415L56.4277 74.9749C56.3222 75.1991 56.2035 75.3442 56.0716 75.4101C55.9397 75.4629 55.6825 75.4893 55.3 75.4893C54.812 75.4893 54.5021 75.4563 54.3702 75.3903C54.2383 75.3244 54.1724 75.1793 54.1724 74.9551V63.8368C54.1724 63.6258 54.2251 63.4873 54.3306 63.4214C54.4361 63.3554 54.6538 63.3224 54.9835 63.3224C55.3132 63.3224 55.5308 63.3554 55.6363 63.4214C55.7418 63.4873 55.7946 63.6258 55.7946 63.8368V72.9768H55.9924L60.1667 63.8368C60.2723 63.6126 60.391 63.4741 60.5228 63.4214C60.6547 63.3554 60.9185 63.3224 61.3142 63.3224C61.8022 63.3224 62.1121 63.3554 62.244 63.4214C62.3891 63.4873 62.4616 63.6258 62.4616 63.8368V74.9551C62.4616 75.1661 62.4089 75.3112 62.3034 75.3903ZM68.5147 68.4661H73.0847V63.8368C73.0847 63.6258 73.1375 63.4873 73.243 63.4214C73.3485 63.3554 73.5661 63.3224 73.8958 63.3224C74.2256 63.3224 74.4432 63.3554 74.5487 63.4214C74.6542 63.4873 74.707 63.6258 74.707 63.8368V74.9551C74.707 75.1793 74.6542 75.3244 74.5487 75.3903C74.4432 75.4563 74.2256 75.4893 73.8958 75.4893C73.5661 75.4893 73.3485 75.4563 73.243 75.3903C73.1375 75.3112 73.0847 75.1661 73.0847 74.9551V69.9103H68.5147V74.9551C68.5147 75.1661 68.462 75.3112 68.3565 75.3903C68.251 75.4563 68.0333 75.4893 67.7036 75.4893C67.3739 75.4893 67.1563 75.4563 67.0508 75.3903C66.9453 75.3112 66.8925 75.1661 66.8925 74.9551V63.8368C66.8925 63.6258 66.9453 63.4873 67.0508 63.4214C67.1563 63.3554 67.3739 63.3224 67.7036 63.3224C68.0333 63.3224 68.251 63.3554 68.3565 63.4214C68.462 63.4873 68.5147 63.6258 68.5147 63.8368V68.4661Z" fill="#BEBEBE"/>
</svg>
