<svg width="170" height="52" viewBox="0 0 170 52" fill="none" xmlns="http://www.w3.org/2000/svg">
<path fill-rule="evenodd" clip-rule="evenodd" d="M60.7639 5.18093C60.651 5.96817 60.0681 6.80212 59.1589 6.82082C56.2884 6.88034 55.5409 5.68125 53.3524 5.58321C44.6548 5.1944 32.9702 15.8533 27.1836 23.6366C24.7748 26.8761 20.8937 31.5543 21.3988 31.9485C21.7092 32.1119 31.0513 24.2031 33.4501 22.9385C37.5393 20.7821 48.0155 16.2196 47.5143 19.6828C46.8691 24.1427 40.869 30.4743 36.6556 31.9024C28.5324 34.6528 23.4285 35.2695 15.6203 35.6105C10.5 35.8343 6.20727 35.1405 1.19574 33.9167C-2.44549 33.0276 5.35155 36.9367 10.2777 37.4456C15.578 37.993 21.5934 37.5273 21.5297 38.8041C21.5222 38.9549 17.7624 42.1627 15.2154 45.3311C12.3325 48.9177 10.707 52.4261 12.3744 50.8766C13.8851 49.4727 15.3605 46.9137 17.6532 44.8179C27.1966 36.0947 50.0798 29.7157 50.0064 32.4765C49.9109 36.0298 33.693 43.1343 33.0717 44.069C35.102 44.5299 39.4696 43.4288 43.5858 41.8006C49.6294 39.4103 72.3496 27.314 67.4137 16.9896C66.8665 15.8456 66.2861 14.6749 66.4121 13.2594C66.6049 11.0923 68.8614 10.7845 69.2942 5.89282C69.382 4.89956 69.4237 4.78739 69.9208 4.10566C70.8453 2.83751 71.6558 2.0098 71.6106 1.82063C71.5478 1.55715 70.9679 2.09952 69.9528 2.47356C69.369 2.68837 68.4526 2.94919 68.1368 2.50468C66.267 -0.126966 61.5069 0.00933748 60.7639 5.18093ZM62.6813 13.4582C59.3577 17.9485 51.652 24.6621 47.3851 26.9211C42.3913 29.5649 36.8275 32.1401 41.8023 31.6533C50.5708 30.795 59.9582 25.8193 64.2104 13.6826C65.1472 11.0086 63.6139 12.1983 62.6813 13.4582Z" fill="#BEBEBE"/>
<path d="M68.4632 25.8485H77.2854V38.4419H74.7427V27.9789H70.9544V33.3564C70.9544 34.897 70.9028 35.9736 70.7998 36.5864C70.6967 37.1934 70.4447 37.6688 70.0438 38.0124C69.6487 38.3503 69.0273 38.5192 68.1797 38.5192C67.8819 38.5192 67.3407 38.4906 66.5561 38.4333V36.4661L67.1231 36.4747C67.6557 36.4747 68.0136 36.4031 68.1969 36.26C68.3802 36.1168 68.4718 35.7646 68.4718 35.2033L68.4632 33.0386V25.8485ZM91.2705 38.4419H88.5044L87.4048 35.5813H82.3709L81.3315 38.4419H78.6341L83.5392 25.8485H86.228L91.2705 38.4419ZM86.5888 33.4595L84.8535 28.7864L83.1526 33.4595H86.5888ZM100.239 33.8117L102.704 34.5934C102.326 35.9679 101.696 36.9901 100.814 37.6602C99.9381 38.3245 98.8242 38.6567 97.4727 38.6567C95.8004 38.6567 94.426 38.0868 93.3493 36.9472C92.2727 35.8018 91.7344 34.2384 91.7344 32.2569C91.7344 30.1608 92.2756 28.5344 93.3579 27.3776C94.4403 26.215 95.8634 25.6337 97.6273 25.6337C99.1679 25.6337 100.419 26.089 101.381 26.9996C101.954 27.5379 102.383 28.311 102.67 29.319L100.153 29.9203C100.004 29.2674 99.6919 28.752 99.2165 28.374C98.7469 27.9961 98.1742 27.8071 97.4985 27.8071C96.565 27.8071 95.8062 28.1421 95.222 28.8121C94.6436 29.4822 94.3544 30.5674 94.3544 32.0679C94.3544 33.66 94.6408 34.7939 95.2134 35.4696C95.7861 36.1454 96.5306 36.4833 97.4469 36.4833C98.1227 36.4833 98.704 36.2685 99.1908 35.839C99.6775 35.4095 100.027 34.7337 100.239 33.8117ZM107.283 38.4419V27.9789H103.546V25.8485H113.554V27.9789H109.826V38.4419H107.283ZM114.241 32.2225C114.241 30.9397 114.433 29.863 114.817 28.9925C115.103 28.3511 115.492 27.7756 115.985 27.2659C116.483 26.7562 117.027 26.3782 117.617 26.132C118.402 25.7998 119.306 25.6337 120.332 25.6337C122.187 25.6337 123.67 26.2093 124.781 27.3604C125.898 28.5115 126.456 30.1121 126.456 32.1624C126.456 34.1954 125.904 35.7875 124.799 36.9386C123.693 38.084 122.216 38.6567 120.366 38.6567C118.493 38.6567 117.004 38.0868 115.899 36.9472C114.794 35.8018 114.241 34.2269 114.241 32.2225ZM116.861 32.1366C116.861 33.5626 117.19 34.645 117.849 35.3837C118.508 36.1168 119.344 36.4833 120.357 36.4833C121.371 36.4833 122.201 36.1196 122.849 35.3923C123.501 34.6593 123.828 33.5626 123.828 32.1022C123.828 30.6591 123.51 29.5824 122.874 28.8723C122.244 28.1621 121.405 27.8071 120.357 27.8071C119.309 27.8071 118.465 28.1679 117.823 28.8895C117.182 29.6053 116.861 30.6877 116.861 32.1366ZM128.243 25.8485H130.786V28.8551C130.786 29.8287 130.82 30.4758 130.889 30.7965C130.963 31.1115 131.178 31.3864 131.533 31.6212C131.888 31.856 132.41 31.9734 133.097 31.9734C133.641 31.9734 134.125 31.9161 134.549 31.8016C134.972 31.6813 135.339 31.5066 135.648 31.2776V25.8485H138.191V38.4419H135.648V33.3736C135.133 33.6027 134.626 33.7774 134.128 33.8976C133.629 34.0122 133.14 34.0694 132.659 34.0694C131.404 34.0694 130.354 33.7745 129.506 33.1846C128.664 32.589 128.243 31.561 128.243 30.1007V25.8485ZM140.862 25.8485H143.405V31.2088C143.972 31.1516 144.356 31.0055 144.556 30.7707C144.757 30.5359 145.066 29.8831 145.484 28.8121C146.011 27.4491 146.541 26.6016 147.073 26.2694C147.6 25.9373 148.451 25.7712 149.625 25.7712C149.682 25.7712 149.805 25.7683 149.994 25.7626V27.6439L149.633 27.6353C149.112 27.6353 148.731 27.7011 148.491 27.8329C148.25 27.9588 148.055 28.1536 147.906 28.417C147.758 28.6804 147.537 29.2216 147.245 30.0406C147.09 30.4758 146.921 30.8395 146.738 31.1315C146.561 31.4236 146.243 31.6985 145.785 31.9562C146.352 32.1166 146.818 32.4401 147.185 32.9269C147.557 33.4137 147.964 34.1009 148.405 34.9886L150.123 38.4419H147.133L145.63 35.1862C145.607 35.1403 145.558 35.0516 145.484 34.9199C145.455 34.874 145.349 34.6765 145.166 34.3271C144.84 33.7086 144.571 33.3221 144.359 33.1674C144.152 33.0128 143.835 32.9326 143.405 32.9269V38.4419H140.862V25.8485ZM162.914 38.4419H160.148L159.048 35.5813H154.014L152.975 38.4419H150.277L155.182 25.8485H157.871L162.914 38.4419ZM158.232 33.4595L156.497 28.7864L154.796 33.4595H158.232Z" fill="#BEBEBE"/>
<path d="M21.9491 47.8313L22.7733 47.6175C22.8357 47.9353 23.002 48.2531 23.2723 48.5709C23.5455 48.8887 23.9064 49.0476 24.3549 49.0476C24.8123 49.0476 25.1732 48.9303 25.4375 48.6956C25.7019 48.461 25.834 48.1773 25.834 47.8447C25.834 47.4853 25.6945 47.2001 25.4153 46.9893C25.1361 46.7754 24.7559 46.6685 24.2747 46.6685H23.8604V45.9156C24.2584 45.9156 24.5628 45.8933 24.7737 45.8487C24.9846 45.8012 25.1702 45.6839 25.3306 45.4968C25.494 45.3067 25.5756 45.0913 25.5756 44.8507C25.5756 44.5656 25.4643 44.3176 25.2415 44.1067C25.0217 43.8958 24.7232 43.7904 24.346 43.7904C24.0163 43.7904 23.7341 43.8736 23.4995 44.0399C23.2678 44.2033 23.1074 44.4216 23.0183 44.6948C22.9292 44.9651 22.8847 45.1671 22.8847 45.3007L22.056 45.1136C22.2609 43.7265 23.0272 43.033 24.3549 43.033C24.9935 43.033 25.4999 43.2112 25.8741 43.5676C26.2484 43.9211 26.4355 44.3354 26.4355 44.8107C26.4355 45.4195 26.1474 45.8918 25.5712 46.2274C25.9038 46.3195 26.1816 46.5081 26.4043 46.7932C26.6301 47.0754 26.7429 47.414 26.7429 47.809C26.7429 48.3704 26.5246 48.8412 26.088 49.2213C25.6544 49.5986 25.0781 49.7872 24.3594 49.7872C23.1238 49.7872 22.3203 49.1352 21.9491 47.8313ZM30.8061 49.0921C30.5091 49.3446 30.2225 49.5228 29.9462 49.6268C29.673 49.7307 29.3789 49.7827 29.0641 49.7827C28.5443 49.7827 28.1448 49.6565 27.8656 49.404C27.5864 49.1486 27.4468 48.8233 27.4468 48.4283C27.4468 48.1966 27.4988 47.9858 27.6028 47.7957C27.7097 47.6026 27.8478 47.4482 28.0171 47.3323C28.1894 47.2165 28.3825 47.1289 28.5963 47.0695C28.7537 47.0279 28.9913 46.9878 29.3091 46.9492C29.9566 46.8719 30.4333 46.7799 30.7393 46.6729C30.7422 46.563 30.7437 46.4932 30.7437 46.4635C30.7437 46.1368 30.668 45.9066 30.5165 45.773C30.3116 45.5918 30.0071 45.5012 29.6032 45.5012C29.226 45.5012 28.9468 45.568 28.7656 45.7017C28.5874 45.8324 28.4552 46.0655 28.3691 46.4012L27.585 46.2942C27.6562 45.9586 27.7736 45.6883 27.9369 45.4834C28.1003 45.2755 28.3364 45.1166 28.6453 45.0067C28.9542 44.8938 29.3121 44.8374 29.719 44.8374C30.123 44.8374 30.4512 44.8849 30.7036 44.9799C30.9561 45.075 31.1417 45.1953 31.2605 45.3408C31.3793 45.4834 31.4625 45.6646 31.51 45.8844C31.5368 46.021 31.5501 46.2675 31.5501 46.6239V47.6932C31.5501 48.4387 31.5665 48.911 31.5991 49.11C31.6348 49.306 31.7031 49.4946 31.8041 49.6758H30.9665C30.8833 49.5095 30.8299 49.3149 30.8061 49.0921ZM30.7393 47.3011C30.4482 47.4199 30.0116 47.5209 29.4294 47.6041C29.0997 47.6516 28.8666 47.7051 28.73 47.7645C28.5933 47.8239 28.4879 47.9115 28.4136 48.0273C28.3394 48.1402 28.3023 48.2664 28.3023 48.406C28.3023 48.6199 28.3825 48.7981 28.5428 48.9407C28.7062 49.0832 28.9438 49.1545 29.2557 49.1545C29.5646 49.1545 29.8393 49.0877 30.0799 48.954C30.3205 48.8174 30.4972 48.6318 30.6101 48.3971C30.6962 48.2159 30.7393 47.9486 30.7393 47.5952V47.3011ZM32.8021 44.9443H34.651C35.1054 44.9443 35.4425 44.9829 35.6623 45.0601C35.8851 45.1344 36.0752 45.2725 36.2326 45.4745C36.393 45.6765 36.4732 45.9185 36.4732 46.2007C36.4732 46.4264 36.4257 46.6239 36.3306 46.7932C36.2385 46.9596 36.0989 47.0992 35.9118 47.212C36.1346 47.2863 36.3187 47.4259 36.4643 47.6308C36.6128 47.8328 36.687 48.0734 36.687 48.3526C36.6573 48.8011 36.4969 49.1337 36.2059 49.3505C35.9148 49.5674 35.4915 49.6758 34.9361 49.6758H32.8021V44.9443ZM33.604 46.9358H34.4594C34.801 46.9358 35.0356 46.918 35.1633 46.8823C35.2911 46.8467 35.4054 46.7754 35.5064 46.6685C35.6074 46.5586 35.6579 46.4279 35.6579 46.2764C35.6579 46.0269 35.5688 45.8532 35.3906 45.7552C35.2153 45.6571 34.9138 45.6081 34.4861 45.6081H33.604V46.9358ZM33.604 49.0164H34.6599C35.1143 49.0164 35.4262 48.9644 35.5955 48.8605C35.7648 48.7535 35.8539 48.5709 35.8628 48.3125C35.8628 48.161 35.8138 48.0214 35.7158 47.8937C35.6178 47.763 35.4901 47.6813 35.3326 47.6486C35.1752 47.613 34.9228 47.5952 34.5752 47.5952H33.604V49.0164ZM37.2395 47.31C37.2395 46.4338 37.483 45.7849 37.9701 45.3631C38.3771 45.0126 38.8731 44.8374 39.4582 44.8374C40.1087 44.8374 40.6403 45.0512 41.0532 45.4789C41.466 45.9037 41.6725 46.4918 41.6725 47.2432C41.6725 47.8521 41.5804 48.3318 41.3962 48.6823C41.2151 49.0298 40.9492 49.3001 40.5987 49.4931C40.2512 49.6862 39.8711 49.7827 39.4582 49.7827C38.7959 49.7827 38.2597 49.5703 37.8499 49.1456C37.4429 48.7209 37.2395 48.109 37.2395 47.31ZM38.0637 47.31C38.0637 47.916 38.1959 48.3704 38.4602 48.6734C38.7246 48.9733 39.0572 49.1233 39.4582 49.1233C39.8562 49.1233 40.1874 48.9719 40.4517 48.6689C40.7161 48.3659 40.8482 47.9041 40.8482 47.2833C40.8482 46.6982 40.7146 46.2556 40.4473 45.9556C40.1829 45.6527 39.8532 45.5012 39.4582 45.5012C39.0572 45.5012 38.7246 45.6512 38.4602 45.9512C38.1959 46.2512 38.0637 46.7041 38.0637 47.31ZM43.0447 44.9443H46.3416V49.0164H46.8539V51.0168H46.1945V49.6758H42.4699V51.0168H41.8106V49.0164H42.2338C42.7981 48.2501 43.0684 46.8927 43.0447 44.9443ZM43.713 45.6081C43.6536 47.1437 43.4159 48.2798 43.0001 49.0164H45.5441V45.6081H43.713ZM50.3023 44.9443H51.5497L52.7928 48.7313L54.1739 44.9443H55.3278V49.6758H54.5258V45.8665L53.1269 49.6758H52.4096L51.0864 45.6839V49.6758H50.3023V44.9443ZM59.6405 49.0921C59.3435 49.3446 59.0568 49.5228 58.7806 49.6268C58.5074 49.7307 58.2133 49.7827 57.8985 49.7827C57.3787 49.7827 56.9792 49.6565 56.7 49.404C56.4208 49.1486 56.2812 48.8233 56.2812 48.4283C56.2812 48.1966 56.3332 47.9858 56.4371 47.7957C56.5441 47.6026 56.6822 47.4482 56.8515 47.3323C57.0238 47.2165 57.2168 47.1289 57.4307 47.0695C57.5881 47.0279 57.8257 46.9878 58.1435 46.9492C58.791 46.8719 59.2677 46.7799 59.5736 46.6729C59.5766 46.563 59.5781 46.4932 59.5781 46.4635C59.5781 46.1368 59.5024 45.9066 59.3509 45.773C59.1459 45.5918 58.8415 45.5012 58.4376 45.5012C58.0603 45.5012 57.7811 45.568 57.6 45.7017C57.4218 45.8324 57.2896 46.0655 57.2035 46.4012L56.4193 46.2942C56.4906 45.9586 56.6079 45.6883 56.7713 45.4834C56.9347 45.2755 57.1708 45.1166 57.4797 45.0067C57.7886 44.8938 58.1465 44.8374 58.5534 44.8374C58.9573 44.8374 59.2855 44.8849 59.538 44.9799C59.7905 45.075 59.9761 45.1953 60.0949 45.3408C60.2137 45.4834 60.2969 45.6646 60.3444 45.8844C60.3711 46.021 60.3845 46.2675 60.3845 46.6239V47.6932C60.3845 48.4387 60.4008 48.911 60.4335 49.11C60.4691 49.306 60.5375 49.4946 60.6384 49.6758H59.8009C59.7177 49.5095 59.6642 49.3149 59.6405 49.0921ZM59.5736 47.3011C59.2826 47.4199 58.846 47.5209 58.2638 47.6041C57.9341 47.6516 57.701 47.7051 57.5643 47.7645C57.4277 47.8239 57.3223 47.9115 57.248 48.0273C57.1737 48.1402 57.1366 48.2664 57.1366 48.406C57.1366 48.6199 57.2168 48.7981 57.3772 48.9407C57.5406 49.0832 57.7782 49.1545 58.09 49.1545C58.3989 49.1545 58.6737 49.0877 58.9143 48.954C59.1549 48.8174 59.3316 48.6318 59.4444 48.3971C59.5306 48.2159 59.5736 47.9486 59.5736 47.5952V47.3011ZM62.024 44.9443H65.7486V49.6758H64.9511V45.6081H62.826V47.965C62.826 48.5144 62.8082 48.8768 62.7725 49.052C62.7369 49.2273 62.6389 49.3802 62.4785 49.5109C62.3181 49.6416 62.0864 49.707 61.7834 49.707C61.5963 49.707 61.381 49.6951 61.1374 49.6713V49.003H61.4894C61.6557 49.003 61.7745 48.9867 61.8458 48.954C61.9171 48.9184 61.9646 48.8634 61.9884 48.7892C62.0121 48.7149 62.024 48.4729 62.024 48.063V44.9443ZM71.4647 44.9443H72.2666V49.6758H71.4647V44.9443ZM66.9783 44.9443H67.7802V46.7932H68.796C69.4584 46.7932 69.9677 46.9224 70.3242 47.1808C70.6835 47.4363 70.8632 47.7897 70.8632 48.2412C70.8632 48.6362 70.7132 48.9748 70.4133 49.257C70.1162 49.5362 69.6395 49.6758 68.9831 49.6758H66.9783V44.9443ZM67.7802 49.0164H68.6223C69.1302 49.0164 69.4925 48.954 69.7093 48.8293C69.9262 48.7045 70.0346 48.51 70.0346 48.2456C70.0346 48.0407 69.9544 47.858 69.794 47.6977C69.6336 47.5373 69.2787 47.4571 68.7292 47.4571H67.7802V49.0164ZM72.9839 49.6758L74.7126 47.2165L73.1131 44.9443H74.1156L74.8418 46.0537C74.9784 46.2645 75.0883 46.4413 75.1715 46.5838C75.3022 46.3878 75.4224 46.2141 75.5323 46.0626L76.3298 44.9443H77.2877L75.6526 47.1719L77.4125 49.6758H76.4278L75.4566 48.2055L75.1982 47.809L73.9552 49.6758H72.9839ZM83.7077 49.0921C83.4107 49.3446 83.1241 49.5228 82.8479 49.6268C82.5746 49.7307 82.2806 49.7827 81.9657 49.7827C81.4459 49.7827 81.0465 49.6565 80.7673 49.404C80.4881 49.1486 80.3485 48.8233 80.3485 48.4283C80.3485 48.1966 80.4004 47.9858 80.5044 47.7957C80.6113 47.6026 80.7494 47.4482 80.9187 47.3323C81.091 47.2165 81.2841 47.1289 81.4979 47.0695C81.6553 47.0279 81.893 46.9878 82.2108 46.9492C82.8583 46.8719 83.335 46.7799 83.6409 46.6729C83.6439 46.563 83.6454 46.4932 83.6454 46.4635C83.6454 46.1368 83.5696 45.9066 83.4181 45.773C83.2132 45.5918 82.9088 45.5012 82.5048 45.5012C82.1276 45.5012 81.8484 45.568 81.6672 45.7017C81.489 45.8324 81.3568 46.0655 81.2707 46.4012L80.4866 46.2942C80.5579 45.9586 80.6752 45.6883 80.8385 45.4834C81.0019 45.2755 81.238 45.1166 81.5469 45.0067C81.8558 44.8938 82.2137 44.8374 82.6206 44.8374C83.0246 44.8374 83.3528 44.8849 83.6053 44.9799C83.8577 45.075 84.0434 45.1953 84.1622 45.3408C84.281 45.4834 84.3641 45.6646 84.4117 45.8844C84.4384 46.021 84.4518 46.2675 84.4518 46.6239V47.6932C84.4518 48.4387 84.4681 48.911 84.5008 49.11C84.5364 49.306 84.6047 49.4946 84.7057 49.6758H83.8681C83.7849 49.5095 83.7315 49.3149 83.7077 49.0921ZM83.6409 47.3011C83.3498 47.4199 82.9132 47.5209 82.3311 47.6041C82.0014 47.6516 81.7682 47.7051 81.6316 47.7645C81.495 47.8239 81.3895 47.9115 81.3153 48.0273C81.241 48.1402 81.2039 48.2664 81.2039 48.406C81.2039 48.6199 81.2841 48.7981 81.4445 48.9407C81.6078 49.0832 81.8454 49.1545 82.1573 49.1545C82.4662 49.1545 82.7409 49.0877 82.9815 48.954C83.2221 48.8174 83.3988 48.6318 83.5117 48.3971C83.5978 48.2159 83.6409 47.9486 83.6409 47.5952V47.3011ZM85.6992 51.4891V44.9443H86.4299V45.5591C86.6022 45.3185 86.7967 45.1389 87.0135 45.02C87.2303 44.8983 87.4932 44.8374 87.8021 44.8374C88.206 44.8374 88.5625 44.9413 88.8714 45.1492C89.1803 45.3572 89.4134 45.6512 89.5708 46.0314C89.7283 46.4086 89.807 46.8229 89.807 47.2744C89.807 47.7585 89.7193 48.1952 89.5441 48.5842C89.3718 48.9704 89.1194 49.2674 88.7867 49.4753C88.457 49.6802 88.1095 49.7827 87.7442 49.7827C87.4769 49.7827 87.2363 49.7263 87.0224 49.6134C86.8115 49.5005 86.6378 49.358 86.5012 49.1857V51.4891H85.6992ZM86.4254 47.3368C86.4254 47.9457 86.5487 48.3956 86.7952 48.6867C87.0417 48.9778 87.3402 49.1233 87.6907 49.1233C88.0471 49.1233 88.3516 48.9733 88.604 48.6734C88.8595 48.3704 88.9872 47.9026 88.9872 47.2699C88.9872 46.667 88.8624 46.2155 88.613 45.9156C88.3664 45.6156 88.0709 45.4656 87.7264 45.4656C87.3848 45.4656 87.0818 45.626 86.8175 45.9467C86.5561 46.2645 86.4254 46.7279 86.4254 47.3368ZM90.1366 49.6758L91.8653 47.2165L90.2658 44.9443H91.2683L91.9945 46.0537C92.1311 46.2645 92.241 46.4413 92.3242 46.5838C92.4549 46.3878 92.5752 46.2141 92.685 46.0626L93.4825 44.9443H94.4404L92.8053 47.1719L94.5652 49.6758H93.5806L92.6093 48.2055L92.3509 47.809L91.1079 49.6758H90.1366ZM95.2335 44.9443H96.0354V48.5531L98.2586 44.9443H99.1229V49.6758H98.3209V46.0893L96.0978 49.6758H95.2335V44.9443ZM99.8981 44.9443H103.743V45.6081H102.219V49.6758H101.422V45.6081H99.8981V44.9443ZM107.641 48.1521L108.47 48.2546C108.339 48.7387 108.097 49.1144 107.744 49.3817C107.39 49.649 106.939 49.7827 106.389 49.7827C105.697 49.7827 105.148 49.5703 104.741 49.1456C104.337 48.7179 104.135 48.1194 104.135 47.3501C104.135 46.5541 104.34 45.9363 104.75 45.4968C105.16 45.0572 105.691 44.8374 106.345 44.8374C106.977 44.8374 107.494 45.0527 107.895 45.4834C108.296 45.9141 108.497 46.52 108.497 47.3011C108.497 47.3487 108.495 47.4199 108.492 47.515H104.964C104.993 48.0348 105.14 48.4328 105.405 48.709C105.669 48.9852 105.999 49.1233 106.394 49.1233C106.688 49.1233 106.939 49.0461 107.147 48.8917C107.355 48.7372 107.52 48.4907 107.641 48.1521ZM105.008 46.8556H107.65C107.615 46.4576 107.514 46.1591 107.347 45.9601C107.092 45.6512 106.761 45.4968 106.354 45.4968C105.985 45.4968 105.675 45.62 105.423 45.8665C105.173 46.1131 105.035 46.4428 105.008 46.8556ZM109.477 44.9443H110.279V46.9893C110.534 46.9893 110.712 46.9403 110.813 46.8422C110.917 46.7442 111.069 46.4591 111.268 45.9868C111.425 45.6126 111.553 45.3661 111.651 45.2473C111.749 45.1285 111.862 45.0483 111.99 45.0067C112.117 44.9651 112.322 44.9443 112.604 44.9443H112.765V45.6081L112.542 45.6037C112.331 45.6037 112.196 45.6349 112.137 45.6972C112.074 45.7626 111.979 45.9571 111.852 46.2809C111.73 46.5898 111.618 46.8036 111.517 46.9224C111.416 47.0412 111.26 47.1497 111.05 47.2477C111.394 47.3397 111.733 47.6605 112.065 48.21L112.943 49.6758H112.061L111.206 48.21C111.03 47.916 110.877 47.7229 110.747 47.6308C110.616 47.5358 110.46 47.4883 110.279 47.4883V49.6758H109.477V44.9443ZM113.148 44.9443H116.993V45.6081H115.469V49.6758H114.672V45.6081H113.148V44.9443ZM117.83 51.498L117.741 50.745C117.917 50.7926 118.07 50.8163 118.2 50.8163C118.378 50.8163 118.521 50.7866 118.628 50.7272C118.735 50.6678 118.823 50.5847 118.891 50.4777C118.941 50.3975 119.023 50.1985 119.136 49.8807C119.151 49.8362 119.174 49.7708 119.207 49.6847L117.412 44.9443H118.276L119.261 47.6843C119.388 48.0318 119.503 48.3971 119.604 48.7803C119.696 48.412 119.806 48.0526 119.933 47.7021L120.945 44.9443H121.747L119.947 49.756C119.754 50.2758 119.604 50.6337 119.497 50.8297C119.354 51.094 119.191 51.2871 119.007 51.4089C118.823 51.5336 118.603 51.596 118.347 51.596C118.193 51.596 118.021 51.5633 117.83 51.498ZM122.321 51.4891V44.9443H123.052V45.5591C123.224 45.3185 123.419 45.1389 123.636 45.02C123.852 44.8983 124.115 44.8374 124.424 44.8374C124.828 44.8374 125.185 44.9413 125.493 45.1492C125.802 45.3572 126.036 45.6512 126.193 46.0314C126.35 46.4086 126.429 46.8229 126.429 47.2744C126.429 47.7585 126.341 48.1952 126.166 48.5842C125.994 48.9704 125.742 49.2674 125.409 49.4753C125.079 49.6802 124.732 49.7827 124.366 49.7827C124.099 49.7827 123.858 49.7263 123.645 49.6134C123.434 49.5005 123.26 49.358 123.123 49.1857V51.4891H122.321ZM123.048 47.3368C123.048 47.9457 123.171 48.3956 123.417 48.6867C123.664 48.9778 123.962 49.1233 124.313 49.1233C124.669 49.1233 124.974 48.9733 125.226 48.6734C125.482 48.3704 125.609 47.9026 125.609 47.2699C125.609 46.667 125.485 46.2155 125.235 45.9156C124.989 45.6156 124.693 45.4656 124.348 45.4656C124.007 45.4656 123.704 45.626 123.44 45.9467C123.178 46.2645 123.048 46.7279 123.048 47.3368ZM127.405 44.9443H128.207V46.9135H130.43V44.9443H131.232V49.6758H130.43V47.5774H128.207V49.6758H127.405V44.9443ZM136.948 44.9443H137.75V49.6758H136.948V44.9443ZM132.462 44.9443H133.263V46.7932H134.279C134.942 46.7932 135.451 46.9224 135.807 47.1808C136.167 47.4363 136.346 47.7897 136.346 48.2412C136.346 48.6362 136.196 48.9748 135.897 49.257C135.599 49.5362 135.123 49.6758 134.466 49.6758H132.462V44.9443ZM133.263 49.0164H134.105C134.613 49.0164 134.976 48.954 135.193 48.8293C135.409 48.7045 135.518 48.51 135.518 48.2456C135.518 48.0407 135.438 47.858 135.277 47.6977C135.117 47.5373 134.762 47.4571 134.212 47.4571H133.263V49.0164ZM138.467 49.6758L140.196 47.2165L138.596 44.9443H139.599L140.325 46.0537C140.462 46.2645 140.572 46.4413 140.655 46.5838C140.785 46.3878 140.906 46.2141 141.016 46.0626L141.813 44.9443H142.771L141.136 47.1719L142.896 49.6758H141.911L140.94 48.2055L140.681 47.809L139.438 49.6758H138.467ZM148.857 43.1444H149.659V45.4032C149.825 45.2131 150.008 45.072 150.207 44.9799C150.406 44.8849 150.62 44.8374 150.848 44.8374C151.41 44.8374 151.854 45.072 152.18 45.5413C152.51 46.0076 152.675 46.5957 152.675 47.3056C152.675 48.0452 152.498 48.6436 152.145 49.1011C151.791 49.5555 151.352 49.7827 150.826 49.7827C150.654 49.7827 150.479 49.756 150.3 49.7025C150.122 49.649 149.908 49.5035 149.659 49.2659V51.4891H148.857V49.2659C148.696 49.4382 148.518 49.5674 148.322 49.6535C148.129 49.7396 147.92 49.7827 147.694 49.7827C147.198 49.7827 146.764 49.5659 146.393 49.1322C146.022 48.6956 145.836 48.0719 145.836 47.261C145.836 46.5749 146.004 46.0002 146.34 45.5369C146.675 45.0705 147.127 44.8374 147.694 44.8374C147.932 44.8374 148.147 44.8849 148.34 44.9799C148.533 45.072 148.705 45.2131 148.857 45.4032V43.1444ZM149.654 47.3279C149.654 48.0407 149.752 48.5204 149.948 48.7669C150.144 49.0105 150.389 49.1322 150.683 49.1322C151.01 49.1322 151.288 48.9822 151.517 48.6823C151.748 48.3793 151.864 47.91 151.864 47.2744C151.864 46.6744 151.757 46.2274 151.543 45.9334C151.332 45.6393 151.061 45.4923 150.728 45.4923C150.372 45.4923 150.103 45.6453 149.922 45.9512C149.743 46.2571 149.654 46.716 149.654 47.3279ZM146.651 47.2388C146.651 47.907 146.763 48.3882 146.986 48.6823C147.211 48.9763 147.491 49.1233 147.823 49.1233C148.171 49.1233 148.431 48.9778 148.603 48.6867C148.775 48.3927 148.861 47.9531 148.861 47.368C148.861 46.7442 148.771 46.2764 148.59 45.9646C148.408 45.6527 148.135 45.4968 147.77 45.4968C147.44 45.4968 147.171 45.6497 146.963 45.9556C146.755 46.2586 146.651 46.6863 146.651 47.2388ZM153.317 47.31C153.317 46.4338 153.56 45.7849 154.047 45.3631C154.454 45.0126 154.95 44.8374 155.535 44.8374C156.186 44.8374 156.717 45.0512 157.13 45.4789C157.543 45.9037 157.749 46.4918 157.749 47.2432C157.749 47.8521 157.657 48.3318 157.473 48.6823C157.292 49.0298 157.026 49.3001 156.676 49.4931C156.328 49.6862 155.948 49.7827 155.535 49.7827C154.873 49.7827 154.337 49.5703 153.927 49.1456C153.52 48.7209 153.317 48.109 153.317 47.31ZM154.141 47.31C154.141 47.916 154.273 48.3704 154.537 48.6734C154.802 48.9733 155.134 49.1233 155.535 49.1233C155.933 49.1233 156.264 48.9719 156.529 48.6689C156.793 48.3659 156.925 47.9041 156.925 47.2833C156.925 46.6982 156.792 46.2556 156.524 45.9556C156.26 45.6527 155.93 45.5012 155.535 45.5012C155.134 45.5012 154.802 45.6512 154.537 45.9512C154.273 46.2512 154.141 46.7041 154.141 47.31ZM158.694 51.4891V44.9443H159.425V45.5591C159.597 45.3185 159.791 45.1389 160.008 45.02C160.225 44.8983 160.488 44.8374 160.797 44.8374C161.201 44.8374 161.557 44.9413 161.866 45.1492C162.175 45.3572 162.408 45.6512 162.566 46.0314C162.723 46.4086 162.802 46.8229 162.802 47.2744C162.802 47.7585 162.714 48.1952 162.539 48.5842C162.367 48.9704 162.114 49.2674 161.781 49.4753C161.452 49.6802 161.104 49.7827 160.739 49.7827C160.472 49.7827 160.231 49.7263 160.017 49.6134C159.806 49.5005 159.633 49.358 159.496 49.1857V51.4891H158.694ZM159.42 47.3368C159.42 47.9457 159.543 48.3956 159.79 48.6867C160.037 48.9778 160.335 49.1233 160.685 49.1233C161.042 49.1233 161.346 48.9733 161.599 48.6734C161.854 48.3704 161.982 47.9026 161.982 47.2699C161.982 46.667 161.857 46.2155 161.608 45.9156C161.361 45.6156 161.066 45.4656 160.721 45.4656C160.38 45.4656 160.077 45.626 159.812 45.9467C159.551 46.2645 159.42 46.7279 159.42 47.3368ZM163.795 44.9443H165.043L166.286 48.7313L167.667 44.9443H168.821V49.6758H168.019V45.8665L166.62 49.6758H165.903L164.579 45.6839V49.6758H163.795V44.9443Z" fill="#BEBEBE"/>
</svg>
