<svg width="76" height="76" viewBox="0 0 76 76" fill="none" xmlns="http://www.w3.org/2000/svg">
<g id="&#208;&#160;&#208;&#181;&#209;&#129;&#209;&#131;&#209;&#128;&#209;&#129;-2 1" clip-path="url(#clip0_1129_7051)">
<g id="g10">
<g id="g12">
<g id="Clip path group">
<mask id="mask0_1129_7051" style="mask-type:luminance" maskUnits="userSpaceOnUse" x="0" y="0" width="76" height="76">
<g id="clipPath18">
<path id="path16" d="M0.5 0.841454H75.5V75.8008H0.5V0.841454Z" fill="white"/>
</g>
</mask>
<g mask="url(#mask0_1129_7051)">
<g id="g14">
<g id="g20">
<path id="path22" d="M56.8401 32.8369H45.9112C45.6666 32.8369 45.492 32.601 45.5627 32.3676L47.5587 25.7923C47.6056 25.639 47.747 25.5339 47.9072 25.5339H58.8361C59.0807 25.5339 59.2553 25.7698 59.1846 26.0038L57.188 32.5785C57.1417 32.7318 57.0003 32.8369 56.8401 32.8369Z" fill="#BEBEBE"/>
</g>
<g id="g24">
<path id="path26" d="M53.4815 28.902L52.3065 32.797C51.5951 35.1564 49.4208 36.7713 46.9562 36.7713H43.9554L39.0775 54.5202C38.1478 57.9064 35.0706 60.249 31.558 60.249H25.6953L32.4465 35.6876C33.5271 31.7527 37.0672 29.0015 41.1323 28.9052C41.2042 28.902 41.2793 28.902 41.3513 28.902H53.4815Z" fill="#BEBEBE"/>
</g>
<g id="g28">
<path id="path30" d="M25.2791 36.7725H19.0234L21.3986 28.9013H33.7484L33.1333 30.9379C32.0884 34.4024 28.8974 36.7725 25.2791 36.7725Z" fill="#BEBEBE"/>
</g>
<g id="g32">
<path id="path34" d="M11.4331 11.8709L9.52095 13.8913L14.6804 18.7779L13.8989 19.6025L8.73946 14.7159L6.83362 16.7275L6.10156 16.0342L10.701 11.1783L11.4331 11.8709Z" fill="#BEBEBE"/>
</g>
<g id="g36">
<path id="path38" d="M20.4849 10.5961L16.8834 8.16403L17.5229 12.4619L20.4849 10.5961ZM21.3214 11.1642L17.673 13.4636L17.9996 15.6554L16.9885 16.293L15.7734 7.46638L16.7445 6.85509L24.1877 11.7561L23.1591 12.4062L21.3214 11.1642Z" fill="#BEBEBE"/>
</g>
<g id="g40">
<path id="path42" d="M29.6664 5.94678C29.9492 5.53821 30.008 5.05142 29.8434 4.4883C29.6789 3.92455 29.3667 3.54664 28.908 3.35393C28.4488 3.16247 27.8675 3.16997 27.1624 3.37708L25.2715 3.93081L26.2939 7.4234L28.1854 6.8703C28.8905 6.66319 29.3842 6.35661 29.6664 5.94678ZM29.5049 2.42603C30.2251 2.73762 30.7088 3.31639 30.9559 4.16232C31.2043 5.007 31.1092 5.75657 30.6719 6.40916C30.2345 7.0605 29.5112 7.5329 28.5026 7.82822L26.578 8.39197L27.2681 10.7502L26.1556 11.0762L23.875 3.2876L26.9121 2.39913C27.9207 2.1038 28.7854 2.11319 29.5049 2.42603Z" fill="#BEBEBE"/>
</g>
<g id="g44">
<path id="path46" d="M40.2502 6.63124C40.2458 6.16698 40.0863 5.8266 39.7728 5.60949C39.4569 5.39112 38.9907 5.28601 38.3719 5.29101L35.8341 5.31291L35.8566 8.05968L38.3957 8.03841C39.6402 8.02903 40.2584 7.55976 40.2502 6.63124ZM35.8266 4.43194L38.0866 4.4113C38.651 4.40817 39.0808 4.29179 39.3761 4.06529C39.6721 3.83817 39.8179 3.50843 39.8141 3.07608C39.811 2.64435 39.6577 2.31461 39.3536 2.08812C39.0502 1.86412 38.6197 1.75275 38.0634 1.75713L35.8028 1.77652L35.8266 4.43194ZM40.9873 5.42616C41.272 5.75965 41.4171 6.18888 41.4228 6.71445C41.4278 7.41773 41.1756 7.9652 40.6651 8.35501C40.1545 8.74606 39.408 8.94566 38.4263 8.95317L34.7173 8.98633L34.6484 0.870526L38.1373 0.841744C39.0264 0.83361 39.7215 1.00755 40.2227 1.36169C40.7245 1.71896 40.9779 2.2314 40.9842 2.90339C40.9873 3.34387 40.8803 3.71991 40.6632 4.03025C40.4448 4.34122 40.1357 4.5771 39.7359 4.73415C40.2853 4.86117 40.7032 5.09267 40.9873 5.42616Z" fill="#BEBEBE"/>
</g>
<g id="g48">
<path id="path50" d="M49.9809 9.95123L49.7194 10.9248L44.0312 9.40251L46.1273 1.56451L51.6609 3.04301L51.4 4.01783L46.987 2.83716L46.3425 5.24543L50.2731 6.29659L50.0197 7.24826L46.0885 6.19773L45.4115 8.72864L49.9809 9.95123Z" fill="#BEBEBE"/>
</g>
<g id="g52">
<path id="path54" d="M60.1051 8.33082L56.4455 6.32361L53.0374 12.5586L52.0312 12.0061L55.9337 4.89204L60.5994 7.4511L60.1051 8.33082Z" fill="#BEBEBE"/>
</g>
<g id="g56">
<path id="path58" d="M62.779 15.8562L64.056 11.7041L60.1311 13.5661L62.779 15.8562ZM62.4793 16.8228L59.2169 14.0022L57.2154 14.9527L56.3125 14.1712L64.3995 10.4371L65.2674 11.1879L62.7483 19.7373L61.8267 18.9414L62.4793 16.8228Z" fill="#BEBEBE"/>
</g>
<g id="g60">
<path id="path62" d="M5.89406 50.0293L5.00183 47.5265L0.744645 49.0557L0.5 48.3662L5.36222 46.6306L6.5016 49.8191L5.89406 50.0293Z" fill="#BEBEBE"/>
</g>
<g id="g64">
<path id="path66" d="M6.16559 54.9809C6.45778 55.1023 6.77 55.0735 7.09724 54.8964C7.42635 54.7193 7.61969 54.4753 7.6785 54.1637C7.73731 53.8528 7.65472 53.4924 7.43386 53.0807L6.83883 51.9776L4.79908 53.0769L5.39599 54.18C5.61686 54.5917 5.87402 54.8582 6.16559 54.9809ZM8.3361 54.4128C8.23849 54.9014 7.94066 55.2793 7.44825 55.5459C6.9552 55.8124 6.4753 55.8525 6.01229 55.6666C5.54928 55.4808 5.15823 55.0941 4.841 54.5054L4.23471 53.3816L2.85882 54.1243L2.50781 53.4761L7.05281 51.0228L8.00886 52.7947C8.32671 53.3835 8.43683 53.9228 8.3361 54.4128Z" fill="#BEBEBE"/>
</g>
<g id="g68">
<path id="path70" d="M12.3799 59.1548L7.60718 59.9244C7.22676 59.9864 6.89515 59.972 6.61234 59.8781C6.33015 59.7849 6.10052 59.6241 5.9247 59.3938C5.78705 59.2136 5.68569 58.9984 5.625 58.7481L6.21002 58.5417C6.26946 58.7244 6.34266 58.8726 6.43026 58.9859C6.6286 59.243 6.92706 59.3525 7.32937 59.3094L7.54649 59.2919L9.38914 55.2562L9.86967 55.8819L8.28981 59.2055L11.9351 58.5742L12.3799 59.1548Z" fill="#BEBEBE"/>
</g>
<g id="g72">
<path id="path74" d="M16.4653 63.0175L12.9658 66.8154L12.4339 66.3261L15.4986 63L13.2955 60.9703L10.2303 64.297L9.69531 63.8009L13.1935 60.0029L16.4653 63.0175Z" fill="#BEBEBE"/>
</g>
<g id="g76">
<path id="path78" d="M21.8268 66.5836L19.0951 70.9678L18.4819 70.5849L20.8739 66.7463L18.3318 65.1633L15.9385 69.0025L15.3203 68.6152L18.0508 64.231L21.8268 66.5836Z" fill="#BEBEBE"/>
</g>
<g id="g80">
<path id="path82" d="M25.2931 71.6599L25.1905 68.8956L23.2221 70.8383L25.2931 71.6599ZM25.3156 72.3031L22.7653 71.2913L21.7617 72.2818L21.0547 72.0015L25.1317 68.064L25.8105 68.3324L26.0877 73.998L25.3682 73.7121L25.3156 72.3031Z" fill="#BEBEBE"/>
</g>
<g id="g84">
<path id="path86" d="M33.2001 73.1806L32.1327 73.0385L31.8336 75.2916L31.1172 75.1959L31.7973 70.0778L32.5137 70.1722L32.219 72.3953L33.3021 72.5392L35.2061 70.5295L35.9869 70.6334L33.8302 72.8696L35.3963 75.7646L34.5616 75.6539L33.2001 73.1806Z" fill="#BEBEBE"/>
</g>
<g id="g88">
<path id="path90" d="M40.7543 74.8394C41.0484 74.6555 41.2762 74.4058 41.437 74.0973C41.599 73.7864 41.6716 73.4448 41.656 73.0725C41.6397 72.6996 41.5364 72.3642 41.35 72.0701C41.1617 71.7754 40.9139 71.5489 40.6042 71.3906C40.2951 71.2323 39.9503 71.1597 39.5718 71.1766C39.1939 71.1929 38.8541 71.2936 38.555 71.4788C38.2553 71.664 38.0251 71.9112 37.863 72.2222C37.7029 72.5306 37.6296 72.8729 37.6459 73.247C37.6628 73.6199 37.7642 73.9534 37.9519 74.2475C38.139 74.5428 38.3905 74.7706 38.7052 74.9289C39.0193 75.0872 39.3659 75.1585 39.7438 75.1422C40.1236 75.1247 40.459 75.0246 40.7543 74.8394ZM38.3498 75.5177C37.9218 75.3056 37.5815 75.004 37.3249 74.6117C37.069 74.2187 36.9308 73.7745 36.9095 73.2783C36.8863 72.7822 36.9877 72.3273 37.2086 71.9131C37.4288 71.502 37.7429 71.1704 38.1502 70.9251C38.5582 70.6786 39.0231 70.5434 39.543 70.5209C40.0598 70.4971 40.5322 70.5916 40.9589 70.8018C41.3863 71.0121 41.7267 71.3124 41.9801 71.7035C42.2335 72.0945 42.3711 72.5394 42.393 73.0412C42.4137 73.5417 42.3167 73.9972 42.0977 74.4083C41.8781 74.82 41.5665 75.1473 41.1579 75.3944C40.75 75.6409 40.2882 75.7748 39.7726 75.7973C39.2514 75.8205 38.7784 75.7266 38.3498 75.5177Z" fill="#BEBEBE"/>
</g>
<g id="g92">
<path id="path94" d="M49.6949 74.0729L48.7677 70.4276L47.7253 73.9246L47.3955 74.0072L44.8246 71.4443L45.74 75.0715L45.053 75.2441L43.7891 70.238L44.3747 70.0897L47.3524 73.0818L48.5249 69.0423L49.1112 68.894L50.3813 73.9002L49.6949 74.0729Z" fill="#BEBEBE"/>
</g>
<g id="g96">
<path id="path98" d="M54.9866 66.2442L57.2228 70.8981L56.5715 71.2109L54.6131 67.1358L51.9132 68.4322L53.871 72.508L53.2121 72.8252L50.9766 68.1688L54.9866 66.2442Z" fill="#BEBEBE"/>
</g>
<g id="g100">
<path id="path102" d="M61.1109 66.0341L58.7208 64.6445L59.3108 67.3462L61.1109 66.0341ZM61.6678 66.3595L59.4497 67.975L59.7501 69.3522L59.1369 69.8008L57.9844 64.2497L58.5763 63.8192L63.5123 66.6104L62.8885 67.0678L61.6678 66.3595Z" fill="#BEBEBE"/>
</g>
<g id="g104">
<path id="path106" d="M64.4759 58.3224L68.2244 61.8776L67.7163 62.4126L66.0463 60.8277L64.0053 62.9807L65.6747 64.5637L65.1672 65.0986L61.4219 61.546L61.9293 61.011L63.538 62.5389L65.5808 60.3872L63.9684 58.8599L64.4759 58.3224Z" fill="#BEBEBE"/>
</g>
<g id="g108">
<path id="path110" d="M65.7031 56.7699L66.0973 56.1542L69.4479 58.3116L67.7516 53.5876L68.1195 53.0151L72.4612 55.8126L72.0695 56.4201L68.7271 54.2671L70.4114 58.9948L70.0448 59.5654L65.7031 56.7699Z" fill="#BEBEBE"/>
</g>
<g id="g112">
<path id="path114" d="M69.0379 51.2348L69.3126 50.5578L73.0054 52.0538L70.4601 47.7272L70.7153 47.0971L75.5 49.0362L75.2297 49.7063L71.5438 48.2134L74.0803 52.5438L73.8238 53.1738L69.0379 51.2348ZM68.9447 49.8064C68.6994 49.944 68.4266 49.9547 68.125 49.837L68.3215 49.3515C68.501 49.4191 68.6643 49.4109 68.812 49.3309C68.9578 49.2508 69.0754 49.1025 69.1611 48.8885C69.2437 48.6826 69.2625 48.4974 69.2149 48.3323C69.1674 48.1677 69.0566 48.0463 68.8802 47.97L69.0748 47.4907C69.3695 47.6158 69.5578 47.8136 69.6392 48.0832C69.7218 48.3523 69.6873 48.6701 69.5378 49.0405C69.3876 49.4128 69.1893 49.6706 68.9447 49.8064Z" fill="#BEBEBE"/>
</g>
<g id="g116">
<path id="path118" d="M4.51675 30.676L2.41381 28.5731C2.34123 28.5005 2.34123 28.3823 2.41381 28.3097L4.51675 26.2067C4.58933 26.1342 4.70758 26.1342 4.78016 26.2067L6.8831 28.3097C6.95568 28.3823 6.95568 28.5005 6.8831 28.5731L4.78016 30.676C4.70758 30.7486 4.58933 30.7486 4.51675 30.676Z" fill="#BEBEBE"/>
</g>
<g id="g120">
<path id="path122" d="M70.7594 32.9124L68.6565 30.8094C68.5833 30.7368 68.5833 30.6186 68.6565 30.546L70.7594 28.4431C70.832 28.3705 70.9502 28.3705 71.0228 28.4431L73.1258 30.546C73.1977 30.6186 73.1977 30.7368 73.1258 30.8094L71.0228 32.9124C70.9502 32.9849 70.832 32.9849 70.7594 32.9124Z" fill="#BEBEBE"/>
</g>
</g>
</g>
</g>
</g>
</g>
</g>
<defs>
<clipPath id="clip0_1129_7051">
<rect width="75" height="74.9593" fill="white" transform="translate(0.5 0.839844)"/>
</clipPath>
</defs>
</svg>
